<svg xmlns="http://www.w3.org/2000/svg" xmlns:xlink="http://www.w3.org/1999/xlink" width="1366" zoomAndPan="magnify" viewBox="0 0 1024.5 576" height="768" preserveAspectRatio="xMidYMid meet" version="1.0"><defs><clipPath id="1929965598"><path d="M 209 108.554688 L 254 108.554688 L 254 126 L 209 126 Z M 209 108.554688 " clip-rule="nonzero"/></clipPath><clipPath id="f5d330b8c2"><path d="M 207 174 L 259.933594 174 L 259.933594 190 L 207 190 Z M 207 174 " clip-rule="nonzero"/></clipPath><clipPath id="c8764e0937"><path d="M 138.492188 186 L 180 186 L 180 200.761719 L 138.492188 200.761719 Z M 138.492188 186 " clip-rule="nonzero"/></clipPath><clipPath id="4e4fdadc6c"><path d="M 748.828125 195 L 786 195 L 786 204 L 748.828125 204 Z M 748.828125 195 " clip-rule="nonzero"/></clipPath><clipPath id="b1bf6b2a8f"><path d="M 790 212 L 816 212 L 816 218.238281 L 790 218.238281 Z M 790 212 " clip-rule="nonzero"/></clipPath><clipPath id="32ccc8f496"><path d="M 852 175 L 871.765625 175 L 871.765625 180 L 852 180 Z M 852 175 " clip-rule="nonzero"/></clipPath></defs><g clip-path="url(#1929965598)"><path fill="#545454" d="M 213.324219 108.542969 L 212.898438 108.542969 C 211.746094 108.554688 210.46875 108.597656 209.066406 108.683594 L 218.007812 112.019531 C 219.058594 112.25 219.855469 112.476562 220.402344 112.691406 C 223.234375 114.390625 225.273438 115.394531 226.511719 115.710938 C 226.675781 115.929688 226.675781 116.117188 226.511719 116.265625 C 224.761719 117.191406 223.988281 117.867188 224.195312 118.292969 C 224.152344 118.457031 224.320312 118.707031 224.691406 119.042969 L 225.40625 119.613281 L 226.429688 120.316406 C 226.984375 120.515625 227.597656 120.480469 228.273438 120.203125 C 228.671875 120.042969 229.445312 119.296875 230.59375 117.960938 C 230.859375 117.75 231.300781 117.6875 231.917969 117.773438 C 235.09375 118.882812 238.542969 120.363281 242.257812 122.210938 C 246.769531 123.417969 250.378906 124.644531 253.085938 125.890625 C 252.417969 125.351562 251.8125 124.933594 251.265625 124.644531 C 250.027344 123.929688 247.65625 122.65625 244.160156 120.824219 L 238.84375 117.136719 C 238.304688 116.820312 237.269531 116.378906 235.734375 115.8125 L 234.949219 114.019531 C 234.773438 113.75 234.53125 113.546875 234.21875 113.414062 C 233.679688 113.195312 233.097656 113.125 232.476562 113.199219 C 231.351562 113.34375 230.328125 113.597656 229.40625 113.964844 C 229.253906 113.992188 229.054688 113.988281 228.804688 113.953125 L 223.003906 110.601562 C 222.195312 110.195312 221.351562 109.84375 220.476562 109.546875 C 219.039062 109.085938 218.101562 108.84375 217.652344 108.808594 C 216.511719 108.632812 215.070312 108.542969 213.324219 108.542969 " fill-opacity="1" fill-rule="nonzero"/></g><path fill="#545454" d="M 163.363281 149.859375 L 163.324219 149.859375 C 163.214844 149.863281 163.117188 149.871094 163.023438 149.890625 C 162.902344 150.167969 162.871094 150.347656 162.929688 150.425781 C 162.898438 150.601562 163.191406 150.992188 163.816406 151.597656 C 164.578125 152.277344 165.367188 152.882812 166.179688 153.414062 C 168.804688 154.902344 170.378906 155.851562 170.902344 156.265625 C 172.082031 157.253906 173.015625 158.167969 173.707031 159.007812 C 174.597656 160.078125 175 161.277344 174.917969 162.609375 C 174.824219 163.46875 174.464844 164.351562 173.839844 165.253906 L 174.5625 164.992188 C 173.640625 165.539062 173.265625 165.988281 173.4375 166.339844 C 174.777344 167.339844 176.09375 167.878906 177.382812 167.953125 C 177.890625 167.945312 178.328125 167.742188 178.695312 167.34375 C 180.308594 165.078125 181.207031 163.9375 181.394531 163.914062 C 181.773438 163.605469 182.425781 163.296875 183.355469 162.988281 C 186.117188 162.21875 188.890625 161.640625 191.671875 161.257812 C 192.488281 161.152344 194.34375 161.15625 197.246094 161.269531 C 197.855469 161.253906 198.234375 161.167969 198.378906 161.011719 C 193.996094 159.40625 191.046875 158.6875 189.53125 158.847656 C 187.308594 159.042969 185.398438 159.371094 183.804688 159.835938 C 183.269531 159.894531 181.882812 160.683594 179.636719 162.199219 C 179.347656 162.335938 179.019531 162.355469 178.65625 162.257812 C 178.445312 162.183594 178.269531 162.054688 178.125 161.867188 C 177.109375 160 176.160156 158.484375 175.28125 157.324219 C 174.519531 156.300781 173.683594 155.402344 172.78125 154.632812 C 170.488281 153.089844 168.664062 151.972656 167.308594 151.277344 C 166.851562 150.992188 165.949219 150.597656 164.59375 150.085938 C 164.109375 149.933594 163.699219 149.859375 163.363281 149.859375 " fill-opacity="1" fill-rule="nonzero"/><g clip-path="url(#f5d330b8c2)"><path fill="#545454" d="M 207.21875 174.640625 L 208.316406 175.710938 C 208.511719 175.957031 209.09375 176.378906 210.0625 176.96875 C 212.03125 178.125 213.851562 179.136719 215.523438 180.003906 L 221.269531 181.332031 C 225.070312 182.652344 227.707031 183.429688 229.175781 183.664062 C 229.496094 183.867188 229.664062 184.15625 229.675781 184.535156 C 229.195312 186.761719 229.042969 188.070312 229.21875 188.453125 C 229.351562 188.84375 229.867188 189.09375 230.757812 189.203125 C 231.179688 189.1875 231.480469 189.070312 231.652344 188.851562 C 232.753906 186.230469 233.703125 184.710938 234.5 184.296875 C 235.003906 184.074219 235.371094 183.945312 235.605469 183.90625 C 236.003906 183.878906 237.203125 183.660156 239.203125 183.257812 L 243.207031 182 C 247.855469 180.859375 250.53125 180.164062 251.234375 179.914062 C 256.925781 177.871094 259.683594 176.652344 259.496094 176.253906 C 259.347656 176.046875 259.011719 175.957031 258.492188 175.988281 L 256.253906 176.261719 L 252.96875 176.703125 C 252.164062 176.824219 249.125 177.433594 243.851562 178.523438 C 242.175781 178.945312 240.824219 179.359375 239.800781 179.765625 L 235.761719 181.90625 C 235.207031 182.113281 234.335938 182.207031 233.160156 182.179688 C 229.386719 181.976562 225.070312 181.164062 220.207031 179.742188 L 218.359375 179.179688 C 216.078125 178.375 214.078125 177.632812 212.359375 176.945312 C 210.910156 176.398438 209.199219 175.628906 207.21875 174.640625 " fill-opacity="1" fill-rule="nonzero"/></g><g clip-path="url(#c8764e0937)"><path fill="#545454" d="M 146.148438 186.382812 L 145.613281 186.394531 C 143.34375 186.535156 141.023438 187.28125 138.65625 188.625 C 140.855469 188.339844 142.023438 188.210938 142.164062 188.238281 C 143.109375 188.269531 143.925781 188.390625 144.613281 188.605469 C 146.316406 189.21875 147.65625 189.753906 148.632812 190.207031 C 151.03125 191.769531 152.804688 192.824219 153.949219 193.367188 C 154.480469 193.652344 154.742188 194.203125 154.738281 195.023438 C 154.6875 195.632812 154.289062 196.5625 153.542969 197.8125 C 153.492188 197.925781 153.496094 198.121094 153.554688 198.402344 C 153.457031 198.410156 153.878906 198.757812 154.828125 199.449219 C 154.910156 199.519531 155.519531 199.933594 156.652344 200.6875 C 156.703125 200.699219 156.769531 200.703125 156.839844 200.703125 C 157.078125 200.703125 157.261719 200.613281 157.382812 200.425781 C 158.703125 197.460938 159.664062 195.703125 160.265625 195.15625 C 161.03125 194.4375 162.074219 194.042969 163.402344 193.980469 C 165.113281 193.859375 166.738281 194.039062 168.273438 194.515625 C 169.066406 194.789062 169.789062 195.089844 170.445312 195.414062 C 172.289062 196.453125 174.839844 197.816406 178.097656 199.511719 C 178.492188 199.691406 178.945312 199.742188 179.449219 199.667969 C 179.800781 199.644531 179.890625 199.492188 179.726562 199.207031 C 179.792969 198.9375 177.890625 197.503906 174.027344 194.914062 C 172.40625 193.808594 171.007812 193.105469 169.828125 192.800781 C 168.605469 192.445312 167.085938 192.316406 165.269531 192.414062 C 163.84375 192.484375 161.457031 192.855469 158.113281 193.53125 C 157.675781 193.589844 157.277344 193.5625 156.914062 193.453125 C 156.539062 193.296875 156.25 193.101562 156.042969 192.871094 C 154.949219 191.324219 154.058594 190.238281 153.371094 189.613281 C 152.878906 189.101562 152.277344 188.597656 151.566406 188.097656 C 149.847656 186.941406 148.042969 186.371094 146.148438 186.382812 " fill-opacity="1" fill-rule="nonzero"/></g><path fill="#545454" d="M 769.699219 172.746094 C 778.183594 166.257812 788.320312 167.046875 794.84375 175.597656 C 795.0625 175.921875 795.351562 176.164062 795.710938 176.316406 C 796.070312 176.472656 796.445312 176.519531 796.828125 176.453125 C 797.265625 176.539062 797.6875 176.484375 798.089844 176.292969 C 798.492188 176.101562 798.796875 175.808594 799.007812 175.417969 C 801.289062 171.652344 804.367188 168.574219 808.738281 167.433594 C 810.929688 166.910156 813.070312 167.078125 815.15625 167.933594 C 817.199219 168.675781 818.703125 170.625 820.859375 170.832031 C 820.992188 170.839844 821.097656 170.792969 821.179688 170.691406 C 821.265625 170.59375 821.289062 170.480469 821.257812 170.351562 C 820.300781 165.984375 812.125 164.238281 808.394531 164.238281 C 803.683594 164.320312 799.738281 166.976562 796.851562 170.488281 C 788.742188 162.082031 776.746094 162.78125 769.515625 172.585938 C 769.421875 172.703125 769.59375 172.816406 769.699219 172.746094 Z M 769.699219 172.746094 " fill-opacity="1" fill-rule="nonzero"/><path fill="#545454" d="M 826.164062 187.128906 C 824.378906 187.234375 822.699219 187.714844 821.128906 188.566406 C 819.558594 189.417969 818.238281 190.5625 817.175781 192 C 810.824219 185.453125 801.515625 186 795.882812 193.628906 C 795.816406 193.722656 795.941406 193.8125 796.019531 193.753906 C 802.636719 188.703125 810.539062 189.273438 815.613281 195.96875 C 815.785156 196.222656 816.007812 196.414062 816.289062 196.535156 C 816.570312 196.65625 816.863281 196.691406 817.164062 196.640625 C 817.496094 196.691406 817.8125 196.644531 818.113281 196.496094 C 818.414062 196.347656 818.644531 196.125 818.808594 195.832031 C 819.605469 194.332031 820.660156 193.042969 821.972656 191.960938 C 823.285156 190.882812 824.753906 190.097656 826.378906 189.605469 C 828.09375 189.191406 829.761719 189.324219 831.386719 190.003906 C 832.984375 190.574219 834.148438 192.089844 835.8125 192.285156 C 835.914062 192.285156 835.996094 192.25 836.058594 192.171875 C 836.121094 192.09375 836.140625 192.003906 836.121094 191.90625 C 835.503906 188.488281 829.070312 187.050781 826.164062 187.128906 Z M 826.164062 187.128906 " fill-opacity="1" fill-rule="nonzero"/><g clip-path="url(#4e4fdadc6c)"><path fill="#545454" d="M 776.0625 195.214844 C 774.457031 195.3125 772.949219 195.742188 771.539062 196.507812 C 770.125 197.273438 768.941406 198.304688 767.988281 199.59375 C 762.285156 193.710938 753.914062 194.199219 748.835938 201.066406 C 748.835938 201.144531 748.835938 201.226562 748.964844 201.179688 C 754.917969 196.617188 762.011719 197.152344 766.574219 203.175781 C 766.726562 203.402344 766.929688 203.570312 767.179688 203.675781 C 767.433594 203.785156 767.695312 203.8125 767.964844 203.769531 C 768.261719 203.820312 768.546875 203.78125 768.820312 203.648438 C 769.09375 203.515625 769.300781 203.316406 769.445312 203.050781 C 770.167969 201.699219 771.121094 200.535156 772.308594 199.566406 C 773.492188 198.59375 774.820312 197.890625 776.289062 197.449219 C 777.828125 197.082031 779.332031 197.199219 780.792969 197.804688 C 782.21875 198.316406 783.269531 199.6875 784.761719 199.835938 C 784.855469 199.835938 784.929688 199.800781 784.988281 199.730469 C 785.046875 199.660156 785.066406 199.582031 785.046875 199.492188 C 784.398438 196.4375 778.671875 195.167969 776.0625 195.214844 Z M 776.0625 195.214844 " fill-opacity="1" fill-rule="nonzero"/></g><g clip-path="url(#b1bf6b2a8f)"><path fill="#545454" d="M 809.457031 212.140625 C 808.339844 212.207031 807.292969 212.503906 806.3125 213.035156 C 805.332031 213.566406 804.507812 214.277344 803.84375 215.175781 C 799.875 211.089844 794.070312 211.433594 790.546875 216.199219 C 790.546875 216.199219 790.546875 216.316406 790.636719 216.28125 C 794.765625 213.121094 799.691406 213.476562 802.863281 217.660156 C 803.097656 218.003906 803.421875 218.144531 803.832031 218.082031 C 804.039062 218.113281 804.238281 218.082031 804.425781 217.992188 C 804.613281 217.898438 804.757812 217.761719 804.859375 217.582031 C 805.359375 216.644531 806.015625 215.835938 806.835938 215.164062 C 807.65625 214.488281 808.574219 214 809.59375 213.691406 C 810.65625 213.449219 811.691406 213.539062 812.695312 213.964844 C 813.6875 214.320312 814.417969 215.277344 815.453125 215.378906 C 815.519531 215.382812 815.570312 215.355469 815.609375 215.308594 C 815.652344 215.257812 815.664062 215.203125 815.648438 215.140625 C 815.25 213.019531 811.269531 212.140625 809.457031 212.140625 Z M 809.457031 212.140625 " fill-opacity="1" fill-rule="nonzero"/></g><g clip-path="url(#32ccc8f496)"><path fill="#545454" d="M 866.902344 175.417969 C 866.0625 175.464844 865.273438 175.691406 864.535156 176.089844 C 863.792969 176.488281 863.171875 177.023438 862.671875 177.699219 C 862.347656 177.332031 861.988281 177.007812 861.59375 176.726562 C 861.195312 176.445312 860.769531 176.210938 860.320312 176.027344 C 859.867188 175.847656 859.402344 175.71875 858.921875 175.640625 C 858.441406 175.566406 857.957031 175.546875 857.46875 175.585938 C 856.984375 175.625 856.511719 175.714844 856.046875 175.863281 C 855.582031 176.011719 855.140625 176.210938 854.722656 176.460938 C 854.304688 176.710938 853.921875 177.007812 853.574219 177.347656 C 853.222656 177.6875 852.917969 178.0625 852.65625 178.472656 C 852.65625 178.472656 852.65625 178.550781 852.726562 178.472656 C 855.839844 176.089844 859.570312 176.363281 861.941406 179.511719 C 862.113281 179.765625 862.351562 179.875 862.660156 179.828125 C 863.003906 179.886719 863.265625 179.757812 863.433594 179.453125 C 863.8125 178.746094 864.308594 178.140625 864.925781 177.632812 C 865.546875 177.125 866.238281 176.753906 867.003906 176.523438 C 867.808594 176.324219 868.589844 176.386719 869.355469 176.703125 C 870.105469 176.980469 870.65625 177.6875 871.441406 177.765625 C 871.488281 177.765625 871.523438 177.75 871.550781 177.714844 C 871.582031 177.679688 871.589844 177.640625 871.578125 177.59375 C 871.257812 176.054688 868.257812 175.394531 866.902344 175.417969 Z M 866.902344 175.417969 " fill-opacity="1" fill-rule="nonzero"/></g></svg>