<svg xmlns="http://www.w3.org/2000/svg" xmlns:xlink="http://www.w3.org/1999/xlink" width="100" zoomAndPan="magnify" viewBox="0 0 75 74.999997" height="100" preserveAspectRatio="xMidYMid meet" version="1.0"><path fill="#000000" d="M 35.441406 63.324219 C 35.46875 63.351562 35.507812 63.363281 35.53125 63.390625 C 35.714844 63.582031 35.921875 63.742188 36.152344 63.867188 C 36.234375 63.933594 36.320312 63.988281 36.410156 64.042969 C 37.136719 64.382812 37.863281 64.382812 38.589844 64.042969 C 38.679688 63.988281 38.765625 63.933594 38.847656 63.867188 C 39.078125 63.742188 39.285156 63.582031 39.46875 63.390625 C 39.496094 63.363281 39.53125 63.351562 39.558594 63.324219 L 52.949219 47.25 C 53.179688 46.980469 53.34375 46.671875 53.453125 46.332031 C 53.558594 45.996094 53.59375 45.648438 53.5625 45.292969 C 53.53125 44.941406 53.433594 44.605469 53.265625 44.289062 C 53.101562 43.976562 52.882812 43.703125 52.609375 43.476562 C 52.335938 43.25 52.03125 43.082031 51.691406 42.976562 C 51.351562 42.871094 51.003906 42.832031 50.652344 42.867188 C 50.296875 42.898438 49.964844 42.996094 49.648438 43.164062 C 49.332031 43.328125 49.0625 43.546875 48.835938 43.820312 L 40.179688 54.207031 L 40.179688 2.679688 C 40.179688 2.324219 40.109375 1.980469 39.976562 1.652344 C 39.839844 1.324219 39.644531 1.035156 39.394531 0.785156 C 39.144531 0.535156 38.851562 0.339844 38.523438 0.203125 C 38.195312 0.0664062 37.855469 0 37.5 0 C 37.144531 0 36.804688 0.0664062 36.476562 0.203125 C 36.148438 0.339844 35.855469 0.535156 35.605469 0.785156 C 35.355469 1.035156 35.160156 1.324219 35.023438 1.652344 C 34.890625 1.980469 34.820312 2.324219 34.820312 2.679688 L 34.820312 54.207031 L 26.164062 43.820312 C 25.9375 43.546875 25.667969 43.328125 25.351562 43.160156 C 25.035156 42.996094 24.703125 42.898438 24.347656 42.867188 C 23.992188 42.832031 23.648438 42.871094 23.308594 42.976562 C 22.96875 43.082031 22.664062 43.25 22.390625 43.476562 C 22.117188 43.703125 21.898438 43.976562 21.730469 44.289062 C 21.566406 44.605469 21.46875 44.9375 21.4375 45.292969 C 21.40625 45.648438 21.441406 45.996094 21.546875 46.332031 C 21.65625 46.671875 21.820312 46.980469 22.050781 47.25 Z M 35.441406 63.324219 " fill-opacity="1" fill-rule="nonzero"/><path fill="#000000" d="M 72.320312 48.214844 C 71.964844 48.214844 71.625 48.28125 71.296875 48.417969 C 70.96875 48.554688 70.679688 48.746094 70.425781 49 C 70.175781 49.25 69.984375 49.539062 69.847656 49.867188 C 69.710938 50.195312 69.644531 50.539062 69.644531 50.894531 L 69.644531 66.964844 C 69.640625 67.320312 69.574219 67.660156 69.4375 67.988281 C 69.300781 68.316406 69.109375 68.605469 68.859375 68.859375 C 68.605469 69.109375 68.316406 69.300781 67.988281 69.4375 C 67.660156 69.574219 67.320312 69.640625 66.964844 69.644531 L 8.035156 69.644531 C 7.679688 69.640625 7.339844 69.574219 7.011719 69.4375 C 6.683594 69.300781 6.394531 69.109375 6.140625 68.859375 C 5.890625 68.605469 5.699219 68.316406 5.5625 67.988281 C 5.425781 67.660156 5.359375 67.320312 5.355469 66.964844 L 5.355469 50.894531 C 5.355469 50.539062 5.289062 50.195312 5.152344 49.867188 C 5.015625 49.539062 4.824219 49.25 4.574219 49 C 4.320312 48.746094 4.03125 48.554688 3.703125 48.417969 C 3.375 48.28125 3.035156 48.214844 2.679688 48.214844 C 2.324219 48.214844 1.980469 48.28125 1.652344 48.417969 C 1.324219 48.554688 1.035156 48.746094 0.785156 49 C 0.535156 49.25 0.339844 49.539062 0.203125 49.867188 C 0.0664062 50.195312 0 50.539062 0 50.894531 L 0 66.964844 C 0 67.492188 0.0507812 68.015625 0.15625 68.53125 C 0.257812 69.046875 0.410156 69.550781 0.613281 70.039062 C 0.816406 70.523438 1.0625 70.988281 1.355469 71.425781 C 1.648438 71.863281 1.984375 72.269531 2.355469 72.644531 C 2.730469 73.015625 3.136719 73.351562 3.574219 73.644531 C 4.011719 73.9375 4.476562 74.183594 4.960938 74.386719 C 5.449219 74.589844 5.953125 74.742188 6.46875 74.84375 C 6.984375 74.949219 7.507812 75 8.035156 75 L 66.964844 75 C 67.492188 75 68.015625 74.949219 68.53125 74.84375 C 69.046875 74.742188 69.550781 74.589844 70.039062 74.386719 C 70.523438 74.183594 70.988281 73.9375 71.425781 73.644531 C 71.863281 73.351562 72.269531 73.015625 72.644531 72.644531 C 73.015625 72.269531 73.351562 71.863281 73.644531 71.425781 C 73.9375 70.988281 74.183594 70.523438 74.386719 70.039062 C 74.589844 69.550781 74.742188 69.046875 74.84375 68.53125 C 74.949219 68.015625 75 67.492188 75 66.964844 L 75 50.894531 C 75 50.539062 74.933594 50.195312 74.796875 49.867188 C 74.660156 49.539062 74.464844 49.25 74.214844 49 C 73.964844 48.746094 73.675781 48.554688 73.347656 48.417969 C 73.019531 48.28125 72.675781 48.214844 72.320312 48.214844 Z M 72.320312 48.214844 " fill-opacity="1" fill-rule="nonzero"/></svg>