<svg xmlns="http://www.w3.org/2000/svg" xmlns:xlink="http://www.w3.org/1999/xlink" width="1366" zoomAndPan="magnify" viewBox="0 0 1024.5 576" height="768" preserveAspectRatio="xMidYMid meet" version="1.0"><defs><clipPath id="969fd86ec7"><path d="M 58 395 L 971.375 395 L 971.375 575.859375 L 58 575.859375 Z M 58 395 " clip-rule="nonzero"/></clipPath><clipPath id="5c2863e13c"><path d="M 49.1875 289 L 110.535156 289 L 110.535156 384.421875 L 49.1875 384.421875 Z M 49.1875 289 " clip-rule="nonzero"/></clipPath><clipPath id="d7be677b18"><path d="M 80 384.398438 C 138.480469 380.570312 98.042969 286.035156 80 287.675781 C 56.402344 289.828125 24.574219 383.675781 80 384.398438 Z M 80 384.398438 " clip-rule="evenodd"/></clipPath><clipPath id="2464819765"><path d="M 75 323 L 85 323 L 85 415.71875 L 75 415.71875 Z M 75 323 " clip-rule="nonzero"/></clipPath><clipPath id="954831d62e"><path d="M 98.414062 271 L 174.429688 271 L 174.429688 389.746094 L 98.414062 389.746094 Z M 98.414062 271 " clip-rule="nonzero"/></clipPath><clipPath id="d4d39a581c"><path d="M 136.59375 389.71875 C 209.058594 384.976562 158.949219 267.832031 136.59375 269.871094 C 107.355469 272.53125 67.914062 388.820312 136.59375 389.71875 Z M 136.59375 389.71875 " clip-rule="evenodd"/></clipPath><clipPath id="4a1f3d477c"><path d="M 131 313 L 142 313 L 142 428.253906 L 131 428.253906 Z M 131 313 " clip-rule="nonzero"/></clipPath><clipPath id="ed1fa1b7bc"><path d="M 161.878906 320 L 220.164062 320 L 220.164062 411.375 L 161.878906 411.375 Z M 161.878906 320 " clip-rule="nonzero"/></clipPath><clipPath id="56c917666b"><path d="M 191.152344 411.355469 C 246.71875 407.71875 208.296875 317.894531 191.152344 319.457031 C 168.734375 321.5 138.492188 410.667969 191.152344 411.355469 Z M 191.152344 411.355469 " clip-rule="evenodd"/></clipPath><clipPath id="cbddefb62e"><path d="M 187 353 L 196 353 L 196 440.835938 L 187 440.835938 Z M 187 353 " clip-rule="nonzero"/></clipPath><clipPath id="bb2083fe41"><path d="M 781.835938 290 L 841.792969 290 L 841.792969 383.660156 L 781.835938 383.660156 Z M 781.835938 290 " clip-rule="nonzero"/></clipPath><clipPath id="676935c78c"><path d="M 811.679688 383.636719 C 754.523438 379.894531 794.046875 287.503906 811.679688 289.109375 C 834.742188 291.207031 865.847656 382.929688 811.679688 383.636719 Z M 811.679688 383.636719 " clip-rule="evenodd"/></clipPath><clipPath id="3f52cd832e"><path d="M 807 323 L 816 323 L 816 414.191406 L 807 414.191406 Z M 807 323 " clip-rule="nonzero"/></clipPath><clipPath id="ff378bf534"><path d="M 891.8125 270 L 948.773438 270 L 948.773438 359.1875 L 891.8125 359.1875 Z M 891.8125 270 " clip-rule="nonzero"/></clipPath><clipPath id="6e689cbabc"><path d="M 920.164062 359.167969 C 865.863281 355.613281 903.410156 267.832031 920.164062 269.359375 C 942.074219 271.355469 971.628906 358.496094 920.164062 359.167969 Z M 920.164062 359.167969 " clip-rule="evenodd"/></clipPath><clipPath id="294c44a9b1"><path d="M 916 302 L 925 302 L 925 388.523438 L 916 388.523438 Z M 916 302 " clip-rule="nonzero"/></clipPath><clipPath id="8ff6e8dd6c"><path d="M 830.722656 243 L 905 243 L 905 358.585938 L 830.722656 358.585938 Z M 830.722656 243 " clip-rule="nonzero"/></clipPath><clipPath id="bf875f1baa"><path d="M 867.703125 358.558594 C 796.875 353.921875 845.851562 239.429688 867.703125 241.417969 C 896.28125 244.023438 934.828125 357.679688 867.703125 358.558594 Z M 867.703125 358.558594 " clip-rule="evenodd"/></clipPath><clipPath id="76fa5938c7"><path d="M 862 284 L 873 284 L 873 396.101562 L 862 396.101562 Z M 862 284 " clip-rule="nonzero"/></clipPath><clipPath id="32a9db8784"><path d="M 325 381 L 1023.820312 381 L 1023.820312 575.859375 L 325 575.859375 Z M 325 381 " clip-rule="nonzero"/></clipPath><clipPath id="b108a4c53e"><path d="M 722 530 L 740 530 L 740 542 L 722 542 Z M 722 530 " clip-rule="nonzero"/></clipPath><clipPath id="c3dcc02888"><path d="M 1039.378906 383.132812 C 1039.378906 383.132812 942.828125 369.117188 773.144531 413.359375 C 604.015625 457.667969 430.679688 542.691406 430.679688 542.691406 L 325.058594 706.640625 L 1049.1875 676.105469 Z M 1039.378906 383.132812 " clip-rule="evenodd"/></clipPath><clipPath id="9e6f003383"><path d="M 817 569 L 835 569 L 835 575.859375 L 817 575.859375 Z M 817 569 " clip-rule="nonzero"/></clipPath><clipPath id="fe8139b2b4"><path d="M 1039.378906 383.132812 C 1039.378906 383.132812 942.828125 369.117188 773.144531 413.359375 C 604.015625 457.667969 430.679688 542.691406 430.679688 542.691406 L 325.058594 706.640625 L 1049.1875 676.105469 Z M 1039.378906 383.132812 " clip-rule="evenodd"/></clipPath><clipPath id="1b30b252be"><path d="M 591 498 L 609 498 L 609 510 L 591 510 Z M 591 498 " clip-rule="nonzero"/></clipPath><clipPath id="9171add203"><path d="M 1039.378906 383.132812 C 1039.378906 383.132812 942.828125 369.117188 773.144531 413.359375 C 604.015625 457.667969 430.679688 542.691406 430.679688 542.691406 L 325.058594 706.640625 L 1049.1875 676.105469 Z M 1039.378906 383.132812 " clip-rule="evenodd"/></clipPath><clipPath id="1fb67c7f20"><path d="M 729 525 L 734 525 L 734 541 L 729 541 Z M 729 525 " clip-rule="nonzero"/></clipPath><clipPath id="3255e99833"><path d="M 1039.378906 383.132812 C 1039.378906 383.132812 942.828125 369.117188 773.144531 413.359375 C 604.015625 457.667969 430.679688 542.691406 430.679688 542.691406 L 325.058594 706.640625 L 1049.1875 676.105469 Z M 1039.378906 383.132812 " clip-rule="evenodd"/></clipPath><clipPath id="de18b69887"><path d="M 823 563 L 829 563 L 829 575.859375 L 823 575.859375 Z M 823 563 " clip-rule="nonzero"/></clipPath><clipPath id="21c0754d09"><path d="M 1039.378906 383.132812 C 1039.378906 383.132812 942.828125 369.117188 773.144531 413.359375 C 604.015625 457.667969 430.679688 542.691406 430.679688 542.691406 L 325.058594 706.640625 L 1049.1875 676.105469 Z M 1039.378906 383.132812 " clip-rule="evenodd"/></clipPath><clipPath id="c01272787a"><path d="M 598 493 L 603 493 L 603 509 L 598 509 Z M 598 493 " clip-rule="nonzero"/></clipPath><clipPath id="32aaae3735"><path d="M 1039.378906 383.132812 C 1039.378906 383.132812 942.828125 369.117188 773.144531 413.359375 C 604.015625 457.667969 430.679688 542.691406 430.679688 542.691406 L 325.058594 706.640625 L 1049.1875 676.105469 Z M 1039.378906 383.132812 " clip-rule="evenodd"/></clipPath><clipPath id="c890385781"><path d="M 767 498 L 783 498 L 783 508 L 767 508 Z M 767 498 " clip-rule="nonzero"/></clipPath><clipPath id="cdd09d0ef6"><path d="M 1039.378906 383.132812 C 1039.378906 383.132812 942.828125 369.117188 773.144531 413.359375 C 604.015625 457.667969 430.679688 542.691406 430.679688 542.691406 L 325.058594 706.640625 L 1049.1875 676.105469 Z M 1039.378906 383.132812 " clip-rule="evenodd"/></clipPath><clipPath id="ebf117281c"><path d="M 773 490 L 778 490 L 778 507 L 773 507 Z M 773 490 " clip-rule="nonzero"/></clipPath><clipPath id="f325c09530"><path d="M 1039.378906 383.132812 C 1039.378906 383.132812 942.828125 369.117188 773.144531 413.359375 C 604.015625 457.667969 430.679688 542.691406 430.679688 542.691406 L 325.058594 706.640625 L 1049.1875 676.105469 Z M 1039.378906 383.132812 " clip-rule="evenodd"/></clipPath><clipPath id="3add13b1e1"><path d="M 903 445 L 917 445 L 917 457 L 903 457 Z M 903 445 " clip-rule="nonzero"/></clipPath><clipPath id="aa7b215657"><path d="M 1039.378906 383.132812 C 1039.378906 383.132812 942.828125 369.117188 773.144531 413.359375 C 604.015625 457.667969 430.679688 542.691406 430.679688 542.691406 L 325.058594 706.640625 L 1049.1875 676.105469 Z M 1039.378906 383.132812 " clip-rule="evenodd"/></clipPath><clipPath id="eced52e2d4"><path d="M 979 519 L 993 519 L 993 530 L 979 530 Z M 979 519 " clip-rule="nonzero"/></clipPath><clipPath id="9cdef5c584"><path d="M 1039.378906 383.132812 C 1039.378906 383.132812 942.828125 369.117188 773.144531 413.359375 C 604.015625 457.667969 430.679688 542.691406 430.679688 542.691406 L 325.058594 706.640625 L 1049.1875 676.105469 Z M 1039.378906 383.132812 " clip-rule="evenodd"/></clipPath><clipPath id="511ccdec7c"><path d="M 909 440 L 914 440 L 914 456 L 909 456 Z M 909 440 " clip-rule="nonzero"/></clipPath><clipPath id="0a1d83174c"><path d="M 1039.378906 383.132812 C 1039.378906 383.132812 942.828125 369.117188 773.144531 413.359375 C 604.015625 457.667969 430.679688 542.691406 430.679688 542.691406 L 325.058594 706.640625 L 1049.1875 676.105469 Z M 1039.378906 383.132812 " clip-rule="evenodd"/></clipPath><clipPath id="2e2bd2b37a"><path d="M 984 513 L 990 513 L 990 529 L 984 529 Z M 984 513 " clip-rule="nonzero"/></clipPath><clipPath id="978616c946"><path d="M 1039.378906 383.132812 C 1039.378906 383.132812 942.828125 369.117188 773.144531 413.359375 C 604.015625 457.667969 430.679688 542.691406 430.679688 542.691406 L 325.058594 706.640625 L 1049.1875 676.105469 Z M 1039.378906 383.132812 " clip-rule="evenodd"/></clipPath><clipPath id="7604fe31be"><path d="M 0 413 L 791 413 L 791 575.859375 L 0 575.859375 Z M 0 413 " clip-rule="nonzero"/></clipPath><clipPath id="5bc13299ac"><path d="M 91 435 L 113 435 L 113 449 L 91 449 Z M 91 435 " clip-rule="nonzero"/></clipPath><clipPath id="759d60e779"><path d="M -52.007812 418.367188 C -52.007812 418.367188 68.273438 406.84375 146.078125 418.761719 C 223.886719 430.679688 455.21875 489.949219 571.578125 550.015625 C 687.933594 610.074219 790.484375 684.933594 790.484375 684.933594 L -17.855469 706.640625 Z M -52.007812 418.367188 " clip-rule="evenodd"/></clipPath><clipPath id="7c3d60a47a"><path d="M 100 428 L 105 428 L 105 448 L 100 448 Z M 100 428 " clip-rule="nonzero"/></clipPath><clipPath id="52a66be08d"><path d="M -52.007812 418.367188 C -52.007812 418.367188 68.273438 406.84375 146.078125 418.761719 C 223.886719 430.679688 455.21875 489.949219 571.578125 550.015625 C 687.933594 610.074219 790.484375 684.933594 790.484375 684.933594 L -17.855469 706.640625 Z M -52.007812 418.367188 " clip-rule="evenodd"/></clipPath><clipPath id="78261fe913"><path d="M 283 473 L 303 473 L 303 489 L 283 489 Z M 283 473 " clip-rule="nonzero"/></clipPath><clipPath id="17de63b67f"><path d="M -52.007812 418.367188 C -52.007812 418.367188 68.273438 406.84375 146.078125 418.761719 C 223.886719 430.679688 455.21875 489.949219 571.578125 550.015625 C 687.933594 610.074219 790.484375 684.933594 790.484375 684.933594 L -17.855469 706.640625 Z M -52.007812 418.367188 " clip-rule="evenodd"/></clipPath><clipPath id="ae11e4bbc0"><path d="M 291 467 L 296 467 L 296 489 L 291 489 Z M 291 467 " clip-rule="nonzero"/></clipPath><clipPath id="b002986b99"><path d="M -52.007812 418.367188 C -52.007812 418.367188 68.273438 406.84375 146.078125 418.761719 C 223.886719 430.679688 455.21875 489.949219 571.578125 550.015625 C 687.933594 610.074219 790.484375 684.933594 790.484375 684.933594 L -17.855469 706.640625 Z M -52.007812 418.367188 " clip-rule="evenodd"/></clipPath><clipPath id="fb6d54e9b2"><path d="M 399 542 L 418 542 L 418 555 L 399 555 Z M 399 542 " clip-rule="nonzero"/></clipPath><clipPath id="e5667f33de"><path d="M -52.007812 418.367188 C -52.007812 418.367188 68.273438 406.84375 146.078125 418.761719 C 223.886719 430.679688 455.21875 489.949219 571.578125 550.015625 C 687.933594 610.074219 790.484375 684.933594 790.484375 684.933594 L -17.855469 706.640625 Z M -52.007812 418.367188 " clip-rule="evenodd"/></clipPath><clipPath id="1451f5f261"><path d="M 179 520 L 198 520 L 198 533 L 179 533 Z M 179 520 " clip-rule="nonzero"/></clipPath><clipPath id="6850328818"><path d="M -52.007812 418.367188 C -52.007812 418.367188 68.273438 406.84375 146.078125 418.761719 C 223.886719 430.679688 455.21875 489.949219 571.578125 550.015625 C 687.933594 610.074219 790.484375 684.933594 790.484375 684.933594 L -17.855469 706.640625 Z M -52.007812 418.367188 " clip-rule="evenodd"/></clipPath><clipPath id="2907b870c2"><path d="M 406 536 L 411 536 L 411 553 L 406 553 Z M 406 536 " clip-rule="nonzero"/></clipPath><clipPath id="39329a665c"><path d="M -52.007812 418.367188 C -52.007812 418.367188 68.273438 406.84375 146.078125 418.761719 C 223.886719 430.679688 455.21875 489.949219 571.578125 550.015625 C 687.933594 610.074219 790.484375 684.933594 790.484375 684.933594 L -17.855469 706.640625 Z M -52.007812 418.367188 " clip-rule="evenodd"/></clipPath><clipPath id="8c0d2b76c7"><path d="M 185 513 L 190 513 L 190 531 L 185 531 Z M 185 513 " clip-rule="nonzero"/></clipPath><clipPath id="d626fc0a7d"><path d="M -52.007812 418.367188 C -52.007812 418.367188 68.273438 406.84375 146.078125 418.761719 C 223.886719 430.679688 455.21875 489.949219 571.578125 550.015625 C 687.933594 610.074219 790.484375 684.933594 790.484375 684.933594 L -17.855469 706.640625 Z M -52.007812 418.367188 " clip-rule="evenodd"/></clipPath><clipPath id="6120dd86ff"><path d="M 374 563 L 393 563 L 393 575 L 374 575 Z M 374 563 " clip-rule="nonzero"/></clipPath><clipPath id="7490fdaa80"><path d="M -52.007812 418.367188 C -52.007812 418.367188 68.273438 406.84375 146.078125 418.761719 C 223.886719 430.679688 455.21875 489.949219 571.578125 550.015625 C 687.933594 610.074219 790.484375 684.933594 790.484375 684.933594 L -17.855469 706.640625 Z M -52.007812 418.367188 " clip-rule="evenodd"/></clipPath><clipPath id="334a54949a"><path d="M 382 553 L 387 553 L 387 575 L 382 575 Z M 382 553 " clip-rule="nonzero"/></clipPath><clipPath id="5fef1052d4"><path d="M -52.007812 418.367188 C -52.007812 418.367188 68.273438 406.84375 146.078125 418.761719 C 223.886719 430.679688 455.21875 489.949219 571.578125 550.015625 C 687.933594 610.074219 790.484375 684.933594 790.484375 684.933594 L -17.855469 706.640625 Z M -52.007812 418.367188 " clip-rule="evenodd"/></clipPath><clipPath id="3377c8b516"><path d="M 557 572 L 576 572 L 576 575.859375 L 557 575.859375 Z M 557 572 " clip-rule="nonzero"/></clipPath><clipPath id="36ff67ffcb"><path d="M -52.007812 418.367188 C -52.007812 418.367188 68.273438 406.84375 146.078125 418.761719 C 223.886719 430.679688 455.21875 489.949219 571.578125 550.015625 C 687.933594 610.074219 790.484375 684.933594 790.484375 684.933594 L -17.855469 706.640625 Z M -52.007812 418.367188 " clip-rule="evenodd"/></clipPath><clipPath id="54263a36e9"><path d="M 563 567 L 568 567 L 568 575.859375 L 563 575.859375 Z M 563 567 " clip-rule="nonzero"/></clipPath><clipPath id="5ddc98a355"><path d="M -52.007812 418.367188 C -52.007812 418.367188 68.273438 406.84375 146.078125 418.761719 C 223.886719 430.679688 455.21875 489.949219 571.578125 550.015625 C 687.933594 610.074219 790.484375 684.933594 790.484375 684.933594 L -17.855469 706.640625 Z M -52.007812 418.367188 " clip-rule="evenodd"/></clipPath></defs><g clip-path="url(#969fd86ec7)"><path fill="#5c7a47" d="M 971.089844 711.996094 C 904.574219 613.832031 833.628906 516.007812 729.460938 454.207031 C 649.742188 406.910156 554.441406 387.863281 462.488281 397.503906 C 290.589844 415.523438 146.785156 568.972656 58.152344 711.996094 Z M 971.089844 711.996094 " fill-opacity="1" fill-rule="nonzero"/></g><path fill="#6f9932" d="M 80 384.398438 C 138.480469 380.570312 98.042969 286.035156 80 287.675781 C 56.402344 289.828125 24.574219 383.675781 80 384.398438 Z M 80 384.398438 " fill-opacity="1" fill-rule="evenodd"/><g clip-path="url(#5c2863e13c)"><g clip-path="url(#d7be677b18)"><path fill="#5f8b20" d="M 45.945312 364.191406 C 45.945312 364.191406 76.582031 399.59375 99.242188 350.664062 C 105.359375 337.460938 105.140625 313.082031 99.1875 295.011719 C 93.234375 276.941406 118.054688 306.339844 118.054688 306.339844 C 118.054688 306.339844 123.097656 355.035156 122.917969 356.589844 C 122.742188 358.144531 118.25 390.167969 115.980469 392.511719 C 113.707031 394.859375 52.996094 399.371094 52.996094 399.371094 C 52.996094 399.371094 38.296875 379.9375 38.148438 377.960938 C 37.996094 375.988281 45.945312 364.191406 45.945312 364.191406 Z M 45.945312 364.191406 " fill-opacity="1" fill-rule="evenodd"/></g></g><path fill="#efc1a8" d="M 80 303.503906 C 80 303.808594 79.972656 304.109375 79.914062 304.40625 C 79.855469 304.707031 79.769531 304.996094 79.65625 305.277344 C 79.542969 305.554688 79.402344 305.824219 79.238281 306.074219 C 79.070312 306.328125 78.882812 306.5625 78.671875 306.777344 C 78.464844 306.992188 78.234375 307.183594 77.988281 307.351562 C 77.738281 307.519531 77.480469 307.664062 77.203125 307.777344 C 76.929688 307.894531 76.644531 307.984375 76.355469 308.042969 C 76.0625 308.101562 75.769531 308.132812 75.472656 308.132812 C 75.171875 308.132812 74.878906 308.101562 74.585938 308.042969 C 74.296875 307.984375 74.011719 307.894531 73.738281 307.777344 C 73.460938 307.664062 73.203125 307.519531 72.953125 307.351562 C 72.707031 307.183594 72.476562 306.992188 72.269531 306.777344 C 72.058594 306.5625 71.871094 306.328125 71.703125 306.074219 C 71.539062 305.824219 71.398438 305.554688 71.285156 305.277344 C 71.171875 304.996094 71.085938 304.707031 71.027344 304.40625 C 70.96875 304.109375 70.941406 303.808594 70.941406 303.503906 C 70.941406 303.203125 70.96875 302.902344 71.027344 302.601562 C 71.085938 302.304688 71.171875 302.015625 71.285156 301.734375 C 71.398438 301.453125 71.539062 301.1875 71.703125 300.933594 C 71.871094 300.683594 72.058594 300.449219 72.269531 300.234375 C 72.476562 300.019531 72.707031 299.828125 72.953125 299.660156 C 73.203125 299.488281 73.460938 299.347656 73.738281 299.230469 C 74.011719 299.113281 74.296875 299.027344 74.585938 298.96875 C 74.878906 298.910156 75.171875 298.878906 75.472656 298.878906 C 75.769531 298.878906 76.0625 298.910156 76.355469 298.96875 C 76.644531 299.027344 76.929688 299.113281 77.203125 299.230469 C 77.480469 299.347656 77.738281 299.488281 77.988281 299.660156 C 78.234375 299.828125 78.464844 300.019531 78.671875 300.234375 C 78.882812 300.449219 79.070312 300.683594 79.238281 300.933594 C 79.402344 301.1875 79.542969 301.453125 79.65625 301.734375 C 79.769531 302.015625 79.855469 302.304688 79.914062 302.601562 C 79.972656 302.902344 80 303.203125 80 303.503906 Z M 80 303.503906 " fill-opacity="1" fill-rule="nonzero"/><path fill="#efc1a8" d="M 98.574219 336.027344 C 98.574219 336.332031 98.542969 336.632812 98.484375 336.929688 C 98.425781 337.230469 98.339844 337.519531 98.226562 337.796875 C 98.113281 338.078125 97.972656 338.347656 97.808594 338.597656 C 97.644531 338.851562 97.457031 339.085938 97.246094 339.300781 C 97.035156 339.515625 96.804688 339.707031 96.558594 339.875 C 96.3125 340.042969 96.050781 340.1875 95.777344 340.300781 C 95.5 340.417969 95.21875 340.507812 94.925781 340.566406 C 94.636719 340.625 94.339844 340.65625 94.042969 340.65625 C 93.746094 340.65625 93.453125 340.625 93.160156 340.566406 C 92.867188 340.507812 92.585938 340.417969 92.308594 340.300781 C 92.035156 340.1875 91.773438 340.042969 91.527344 339.875 C 91.28125 339.707031 91.050781 339.515625 90.839844 339.300781 C 90.628906 339.085938 90.441406 338.851562 90.277344 338.597656 C 90.113281 338.347656 89.972656 338.078125 89.859375 337.796875 C 89.746094 337.519531 89.660156 337.230469 89.601562 336.929688 C 89.542969 336.632812 89.515625 336.332031 89.515625 336.027344 C 89.515625 335.722656 89.542969 335.421875 89.601562 335.125 C 89.660156 334.828125 89.746094 334.539062 89.859375 334.257812 C 89.972656 333.976562 90.113281 333.710938 90.277344 333.457031 C 90.441406 333.207031 90.628906 332.972656 90.839844 332.757812 C 91.050781 332.542969 91.28125 332.351562 91.527344 332.179688 C 91.773438 332.011719 92.035156 331.871094 92.308594 331.753906 C 92.585938 331.636719 92.867188 331.550781 93.160156 331.492188 C 93.453125 331.429688 93.746094 331.402344 94.042969 331.402344 C 94.339844 331.402344 94.636719 331.429688 94.925781 331.492188 C 95.21875 331.550781 95.5 331.636719 95.777344 331.753906 C 96.050781 331.871094 96.3125 332.011719 96.558594 332.179688 C 96.804688 332.351562 97.035156 332.542969 97.246094 332.757812 C 97.457031 332.972656 97.644531 333.207031 97.808594 333.457031 C 97.972656 333.710938 98.113281 333.976562 98.226562 334.257812 C 98.339844 334.539062 98.425781 334.828125 98.484375 335.125 C 98.542969 335.421875 98.574219 335.722656 98.574219 336.027344 Z M 98.574219 336.027344 " fill-opacity="1" fill-rule="nonzero"/><path fill="#efc1a8" d="M 103.734375 344.628906 C 103.734375 344.980469 103.667969 345.316406 103.539062 345.636719 C 103.40625 345.960938 103.21875 346.246094 102.976562 346.492188 C 102.738281 346.742188 102.457031 346.929688 102.140625 347.066406 C 101.824219 347.199219 101.496094 347.265625 101.152344 347.265625 C 100.8125 347.265625 100.480469 347.199219 100.167969 347.066406 C 99.851562 346.929688 99.570312 346.742188 99.328125 346.492188 C 99.085938 346.246094 98.898438 345.960938 98.769531 345.636719 C 98.636719 345.316406 98.574219 344.980469 98.574219 344.628906 C 98.574219 344.28125 98.636719 343.945312 98.769531 343.621094 C 98.898438 343.296875 99.085938 343.011719 99.328125 342.765625 C 99.570312 342.519531 99.851562 342.328125 100.167969 342.195312 C 100.480469 342.058594 100.8125 341.992188 101.152344 341.992188 C 101.496094 341.992188 101.824219 342.058594 102.140625 342.195312 C 102.457031 342.328125 102.738281 342.519531 102.976562 342.765625 C 103.21875 343.011719 103.40625 343.296875 103.539062 343.621094 C 103.667969 343.945312 103.734375 344.28125 103.734375 344.628906 Z M 103.734375 344.628906 " fill-opacity="1" fill-rule="nonzero"/><path fill="#efc1a8" d="M 68.265625 316.222656 C 68.265625 316.570312 68.203125 316.90625 68.070312 317.230469 C 67.9375 317.554688 67.753906 317.839844 67.511719 318.085938 C 67.269531 318.332031 66.988281 318.523438 66.671875 318.65625 C 66.355469 318.789062 66.027344 318.859375 65.6875 318.859375 C 65.34375 318.859375 65.015625 318.789062 64.699219 318.65625 C 64.382812 318.523438 64.101562 318.332031 63.859375 318.085938 C 63.621094 317.839844 63.433594 317.554688 63.300781 317.230469 C 63.171875 316.90625 63.105469 316.570312 63.105469 316.222656 C 63.105469 315.871094 63.171875 315.535156 63.300781 315.210938 C 63.433594 314.890625 63.621094 314.605469 63.859375 314.359375 C 64.101562 314.109375 64.382812 313.917969 64.699219 313.785156 C 65.015625 313.652344 65.34375 313.585938 65.6875 313.585938 C 66.027344 313.585938 66.355469 313.652344 66.671875 313.785156 C 66.988281 313.917969 67.269531 314.109375 67.511719 314.359375 C 67.753906 314.605469 67.9375 314.890625 68.070312 315.210938 C 68.203125 315.535156 68.265625 315.871094 68.265625 316.222656 Z M 68.265625 316.222656 " fill-opacity="1" fill-rule="nonzero"/><g clip-path="url(#2464819765)"><path fill="#4e2b14" d="M 81.109375 323.207031 L 78.53125 323.257812 L 75.648438 415.585938 L 84.167969 415.613281 Z M 81.109375 323.207031 " fill-opacity="1" fill-rule="evenodd"/></g><path fill="#4e2b14" d="M 80 378.28125 L 92.832031 354.339844 L 94.042969 356.105469 L 81.089844 389.230469 Z M 80 378.28125 " fill-opacity="1" fill-rule="evenodd"/><path fill="#4e2b14" d="M 78.296875 370.671875 L 78.777344 365.15625 L 64.375 347.265625 L 63.105469 349.375 Z M 78.296875 370.671875 " fill-opacity="1" fill-rule="evenodd"/><path fill="#5c7a47" d="M 136.59375 389.71875 C 209.058594 384.976562 158.949219 267.832031 136.59375 269.871094 C 107.355469 272.53125 67.914062 388.820312 136.59375 389.71875 Z M 136.59375 389.71875 " fill-opacity="1" fill-rule="evenodd"/><g clip-path="url(#954831d62e)"><g clip-path="url(#d4d39a581c)"><path fill="#5c7a47" d="M 94.394531 364.679688 C 94.394531 364.679688 132.355469 408.542969 160.4375 347.917969 C 168.015625 331.558594 167.746094 301.347656 160.371094 278.957031 C 152.992188 256.570312 183.746094 292.996094 183.746094 292.996094 C 183.746094 292.996094 189.992188 353.332031 189.773438 355.257812 C 189.554688 357.1875 183.988281 396.867188 181.175781 399.773438 C 178.359375 402.675781 103.132812 408.269531 103.132812 408.269531 C 103.132812 408.269531 84.921875 384.1875 84.734375 381.742188 C 84.542969 379.292969 94.394531 364.679688 94.394531 364.679688 Z M 94.394531 364.679688 " fill-opacity="1" fill-rule="evenodd"/></g></g><path fill="#ffa09a" d="M 136.59375 289.480469 C 136.59375 289.859375 136.558594 290.230469 136.484375 290.601562 C 136.414062 290.96875 136.308594 291.328125 136.164062 291.675781 C 136.023438 292.023438 135.851562 292.355469 135.648438 292.667969 C 135.441406 292.980469 135.210938 293.269531 134.949219 293.535156 C 134.6875 293.800781 134.40625 294.039062 134.097656 294.25 C 133.792969 294.457031 133.46875 294.632812 133.128906 294.777344 C 132.789062 294.921875 132.4375 295.03125 132.074219 295.105469 C 131.714844 295.179688 131.347656 295.214844 130.980469 295.214844 C 130.613281 295.214844 130.246094 295.179688 129.886719 295.105469 C 129.523438 295.03125 129.175781 294.921875 128.832031 294.777344 C 128.492188 294.632812 128.167969 294.457031 127.863281 294.25 C 127.558594 294.039062 127.273438 293.800781 127.011719 293.535156 C 126.753906 293.269531 126.519531 292.980469 126.316406 292.667969 C 126.109375 292.355469 125.9375 292.023438 125.796875 291.675781 C 125.65625 291.328125 125.546875 290.96875 125.476562 290.601562 C 125.40625 290.230469 125.367188 289.859375 125.367188 289.480469 C 125.367188 289.105469 125.40625 288.734375 125.476562 288.363281 C 125.546875 287.996094 125.65625 287.636719 125.796875 287.289062 C 125.9375 286.941406 126.109375 286.609375 126.316406 286.296875 C 126.519531 285.984375 126.753906 285.695312 127.011719 285.429688 C 127.273438 285.164062 127.558594 284.925781 127.863281 284.714844 C 128.167969 284.507812 128.492188 284.332031 128.832031 284.1875 C 129.175781 284.042969 129.523438 283.933594 129.886719 283.859375 C 130.246094 283.785156 130.613281 283.75 130.980469 283.75 C 131.347656 283.75 131.714844 283.785156 132.074219 283.859375 C 132.4375 283.933594 132.789062 284.042969 133.128906 284.1875 C 133.46875 284.332031 133.792969 284.507812 134.097656 284.714844 C 134.40625 284.925781 134.6875 285.164062 134.949219 285.429688 C 135.210938 285.695312 135.441406 285.984375 135.648438 286.296875 C 135.851562 286.609375 136.023438 286.941406 136.164062 287.289062 C 136.308594 287.636719 136.414062 287.996094 136.484375 288.363281 C 136.558594 288.734375 136.59375 289.105469 136.59375 289.480469 Z M 136.59375 289.480469 " fill-opacity="1" fill-rule="nonzero"/><path fill="#ffa09a" d="M 159.605469 329.78125 C 159.605469 330.15625 159.570312 330.53125 159.5 330.898438 C 159.425781 331.269531 159.320312 331.628906 159.179688 331.976562 C 159.039062 332.324219 158.863281 332.652344 158.660156 332.964844 C 158.457031 333.277344 158.222656 333.570312 157.960938 333.835938 C 157.703125 334.101562 157.417969 334.339844 157.113281 334.546875 C 156.804688 334.757812 156.480469 334.933594 156.140625 335.078125 C 155.800781 335.222656 155.449219 335.332031 155.089844 335.402344 C 154.726562 335.476562 154.363281 335.515625 153.996094 335.515625 C 153.625 335.515625 153.261719 335.476562 152.898438 335.402344 C 152.539062 335.332031 152.1875 335.222656 151.847656 335.078125 C 151.507812 334.933594 151.183594 334.757812 150.875 334.546875 C 150.570312 334.339844 150.285156 334.101562 150.027344 333.835938 C 149.765625 333.570312 149.53125 333.277344 149.328125 332.964844 C 149.125 332.652344 148.949219 332.324219 148.808594 331.976562 C 148.667969 331.628906 148.5625 331.269531 148.488281 330.898438 C 148.417969 330.53125 148.382812 330.15625 148.382812 329.78125 C 148.382812 329.40625 148.417969 329.03125 148.488281 328.664062 C 148.5625 328.292969 148.667969 327.933594 148.808594 327.585938 C 148.949219 327.238281 149.125 326.910156 149.328125 326.597656 C 149.53125 326.285156 149.765625 325.996094 150.027344 325.726562 C 150.285156 325.460938 150.570312 325.222656 150.875 325.015625 C 151.183594 324.804688 151.507812 324.628906 151.847656 324.484375 C 152.1875 324.339844 152.539062 324.234375 152.898438 324.160156 C 153.261719 324.085938 153.625 324.050781 153.996094 324.050781 C 154.363281 324.050781 154.726562 324.085938 155.089844 324.160156 C 155.449219 324.234375 155.800781 324.339844 156.140625 324.484375 C 156.480469 324.628906 156.804688 324.804688 157.113281 325.015625 C 157.417969 325.222656 157.703125 325.460938 157.960938 325.726562 C 158.222656 325.992188 158.457031 326.285156 158.660156 326.597656 C 158.863281 326.910156 159.039062 327.238281 159.179688 327.585938 C 159.320312 327.933594 159.425781 328.292969 159.5 328.664062 C 159.570312 329.03125 159.605469 329.40625 159.605469 329.78125 Z M 159.605469 329.78125 " fill-opacity="1" fill-rule="nonzero"/><path fill="#ffa09a" d="M 166.003906 340.4375 C 166.003906 340.871094 165.921875 341.289062 165.757812 341.6875 C 165.597656 342.089844 165.367188 342.441406 165.066406 342.75 C 164.765625 343.054688 164.421875 343.289062 164.027344 343.457031 C 163.636719 343.621094 163.230469 343.707031 162.804688 343.707031 C 162.382812 343.707031 161.972656 343.621094 161.582031 343.457031 C 161.1875 343.289062 160.84375 343.054688 160.542969 342.75 C 160.242188 342.441406 160.011719 342.089844 159.851562 341.6875 C 159.6875 341.289062 159.605469 340.871094 159.605469 340.4375 C 159.605469 340.007812 159.6875 339.589844 159.851562 339.1875 C 160.011719 338.789062 160.242188 338.4375 160.542969 338.128906 C 160.84375 337.824219 161.1875 337.585938 161.582031 337.421875 C 161.972656 337.253906 162.382812 337.171875 162.804688 337.171875 C 163.230469 337.171875 163.636719 337.253906 164.027344 337.421875 C 164.421875 337.585938 164.765625 337.824219 165.066406 338.128906 C 165.367188 338.4375 165.597656 338.789062 165.757812 339.1875 C 165.921875 339.589844 166.003906 340.007812 166.003906 340.4375 Z M 166.003906 340.4375 " fill-opacity="1" fill-rule="nonzero"/><path fill="#ffa09a" d="M 122.054688 305.238281 C 122.054688 305.671875 121.972656 306.089844 121.8125 306.488281 C 121.648438 306.890625 121.417969 307.242188 121.117188 307.546875 C 120.816406 307.855469 120.472656 308.089844 120.082031 308.257812 C 119.6875 308.421875 119.28125 308.503906 118.855469 308.503906 C 118.433594 308.503906 118.023438 308.421875 117.632812 308.257812 C 117.242188 308.089844 116.894531 307.855469 116.597656 307.546875 C 116.296875 307.242188 116.066406 306.890625 115.902344 306.488281 C 115.742188 306.089844 115.660156 305.671875 115.660156 305.238281 C 115.660156 304.804688 115.742188 304.390625 115.902344 303.988281 C 116.066406 303.589844 116.296875 303.234375 116.597656 302.929688 C 116.894531 302.621094 117.242188 302.386719 117.632812 302.222656 C 118.023438 302.054688 118.433594 301.972656 118.855469 301.972656 C 119.28125 301.972656 119.6875 302.054688 120.082031 302.222656 C 120.472656 302.386719 120.816406 302.621094 121.117188 302.929688 C 121.417969 303.234375 121.648438 303.589844 121.8125 303.988281 C 121.972656 304.390625 122.054688 304.804688 122.054688 305.238281 Z M 122.054688 305.238281 " fill-opacity="1" fill-rule="nonzero"/><g clip-path="url(#4a1f3d477c)"><path fill="#4e2b14" d="M 137.96875 313.894531 L 134.773438 313.957031 L 131.199219 428.363281 L 141.757812 428.394531 Z M 137.96875 313.894531 " fill-opacity="1" fill-rule="evenodd"/></g><path fill="#4e2b14" d="M 136.59375 382.140625 L 152.492188 352.46875 L 153.992188 354.660156 L 137.945312 395.703125 Z M 136.59375 382.140625 " fill-opacity="1" fill-rule="evenodd"/><path fill="#4e2b14" d="M 134.484375 372.707031 L 135.082031 365.871094 L 117.230469 343.703125 L 115.660156 346.320312 Z M 134.484375 372.707031 " fill-opacity="1" fill-rule="evenodd"/><path fill="#6f9932" d="M 191.152344 411.355469 C 246.71875 407.71875 208.296875 317.894531 191.152344 319.457031 C 168.734375 321.5 138.492188 410.667969 191.152344 411.355469 Z M 191.152344 411.355469 " fill-opacity="1" fill-rule="evenodd"/><g clip-path="url(#ed1fa1b7bc)"><g clip-path="url(#56c917666b)"><path fill="#5f8b20" d="M 158.796875 392.15625 C 158.796875 392.15625 187.90625 425.789062 209.4375 379.300781 C 215.246094 366.757812 215.042969 343.59375 209.386719 326.425781 C 203.730469 309.257812 227.3125 337.1875 227.3125 337.1875 C 227.3125 337.1875 232.101562 383.453125 231.933594 384.933594 C 231.765625 386.410156 227.496094 416.835938 225.339844 419.0625 C 223.179688 421.289062 165.496094 425.578125 165.496094 425.578125 C 165.496094 425.578125 151.53125 407.113281 151.386719 405.238281 C 151.242188 403.359375 158.796875 392.15625 158.796875 392.15625 Z M 158.796875 392.15625 " fill-opacity="1" fill-rule="evenodd"/></g></g><path fill="#efc1a8" d="M 191.152344 334.496094 C 191.152344 334.785156 191.125 335.070312 191.070312 335.351562 C 191.015625 335.636719 190.933594 335.910156 190.828125 336.175781 C 190.71875 336.445312 190.585938 336.695312 190.429688 336.9375 C 190.273438 337.175781 190.09375 337.398438 189.894531 337.601562 C 189.695312 337.808594 189.476562 337.988281 189.242188 338.148438 C 189.007812 338.308594 188.757812 338.445312 188.496094 338.554688 C 188.238281 338.667969 187.96875 338.75 187.691406 338.804688 C 187.414062 338.863281 187.132812 338.890625 186.851562 338.890625 C 186.566406 338.890625 186.289062 338.863281 186.011719 338.804688 C 185.734375 338.75 185.464844 338.667969 185.203125 338.554688 C 184.941406 338.445312 184.695312 338.308594 184.460938 338.148438 C 184.226562 337.988281 184.007812 337.808594 183.808594 337.601562 C 183.609375 337.398438 183.429688 337.175781 183.273438 336.9375 C 183.117188 336.695312 182.984375 336.445312 182.875 336.175781 C 182.765625 335.910156 182.683594 335.636719 182.628906 335.351562 C 182.574219 335.070312 182.546875 334.785156 182.546875 334.496094 C 182.546875 334.207031 182.574219 333.921875 182.628906 333.636719 C 182.683594 333.355469 182.765625 333.078125 182.875 332.8125 C 182.984375 332.546875 183.117188 332.292969 183.273438 332.054688 C 183.429688 331.8125 183.609375 331.589844 183.808594 331.386719 C 184.007812 331.183594 184.226562 331 184.460938 330.839844 C 184.695312 330.679688 184.941406 330.542969 185.203125 330.433594 C 185.464844 330.324219 185.734375 330.242188 186.011719 330.183594 C 186.289062 330.128906 186.566406 330.097656 186.851562 330.097656 C 187.132812 330.097656 187.414062 330.128906 187.691406 330.183594 C 187.96875 330.242188 188.238281 330.324219 188.496094 330.433594 C 188.757812 330.542969 189.007812 330.679688 189.242188 330.839844 C 189.476562 331 189.695312 331.183594 189.894531 331.386719 C 190.09375 331.589844 190.273438 331.8125 190.429688 332.054688 C 190.585938 332.292969 190.71875 332.546875 190.828125 332.8125 C 190.933594 333.078125 191.015625 333.355469 191.070312 333.636719 C 191.125 333.921875 191.152344 334.207031 191.152344 334.496094 Z M 191.152344 334.496094 " fill-opacity="1" fill-rule="nonzero"/><path fill="#efc1a8" d="M 208.800781 365.394531 C 208.800781 365.683594 208.773438 365.96875 208.71875 366.253906 C 208.660156 366.535156 208.582031 366.8125 208.472656 367.078125 C 208.363281 367.34375 208.230469 367.597656 208.074219 367.835938 C 207.917969 368.078125 207.738281 368.300781 207.539062 368.503906 C 207.339844 368.707031 207.121094 368.890625 206.886719 369.050781 C 206.652344 369.210938 206.40625 369.347656 206.144531 369.457031 C 205.882812 369.566406 205.613281 369.648438 205.335938 369.707031 C 205.058594 369.761719 204.777344 369.792969 204.496094 369.792969 C 204.214844 369.792969 203.933594 369.761719 203.65625 369.707031 C 203.378906 369.648438 203.109375 369.566406 202.851562 369.457031 C 202.589844 369.347656 202.339844 369.210938 202.105469 369.050781 C 201.871094 368.890625 201.652344 368.707031 201.453125 368.503906 C 201.253906 368.300781 201.074219 368.078125 200.917969 367.835938 C 200.761719 367.597656 200.628906 367.34375 200.519531 367.078125 C 200.414062 366.8125 200.332031 366.535156 200.277344 366.253906 C 200.222656 365.96875 200.195312 365.683594 200.195312 365.394531 C 200.195312 365.105469 200.222656 364.820312 200.277344 364.539062 C 200.332031 364.253906 200.414062 363.980469 200.519531 363.714844 C 200.628906 363.445312 200.761719 363.195312 200.917969 362.953125 C 201.074219 362.714844 201.253906 362.492188 201.453125 362.289062 C 201.652344 362.082031 201.871094 361.902344 202.105469 361.742188 C 202.339844 361.582031 202.589844 361.445312 202.851562 361.335938 C 203.109375 361.222656 203.378906 361.140625 203.65625 361.085938 C 203.933594 361.027344 204.214844 361 204.496094 361 C 204.777344 361 205.058594 361.027344 205.335938 361.085938 C 205.613281 361.140625 205.882812 361.222656 206.144531 361.335938 C 206.40625 361.445312 206.652344 361.582031 206.886719 361.742188 C 207.121094 361.902344 207.339844 362.082031 207.539062 362.289062 C 207.738281 362.492188 207.917969 362.714844 208.074219 362.953125 C 208.230469 363.195312 208.363281 363.445312 208.472656 363.714844 C 208.582031 363.980469 208.660156 364.253906 208.71875 364.539062 C 208.773438 364.820312 208.800781 365.105469 208.800781 365.394531 Z M 208.800781 365.394531 " fill-opacity="1" fill-rule="nonzero"/><path fill="#efc1a8" d="M 213.703125 373.566406 C 213.703125 373.898438 213.640625 374.21875 213.519531 374.527344 C 213.394531 374.832031 213.214844 375.105469 212.984375 375.339844 C 212.757812 375.574219 212.492188 375.753906 212.191406 375.882812 C 211.890625 376.007812 211.578125 376.070312 211.253906 376.070312 C 210.925781 376.070312 210.613281 376.007812 210.3125 375.882812 C 210.015625 375.753906 209.75 375.574219 209.519531 375.339844 C 209.289062 375.105469 209.113281 374.832031 208.988281 374.527344 C 208.863281 374.21875 208.800781 373.898438 208.800781 373.566406 C 208.800781 373.234375 208.863281 372.917969 208.988281 372.609375 C 209.113281 372.300781 209.289062 372.03125 209.519531 371.796875 C 209.75 371.5625 210.015625 371.382812 210.3125 371.253906 C 210.613281 371.125 210.925781 371.0625 211.253906 371.0625 C 211.578125 371.0625 211.890625 371.125 212.191406 371.253906 C 212.492188 371.382812 212.757812 371.5625 212.984375 371.796875 C 213.214844 372.03125 213.394531 372.300781 213.519531 372.609375 C 213.640625 372.917969 213.703125 373.234375 213.703125 373.566406 Z M 213.703125 373.566406 " fill-opacity="1" fill-rule="nonzero"/><path fill="#efc1a8" d="M 180.007812 346.578125 C 180.007812 346.910156 179.945312 347.230469 179.820312 347.535156 C 179.695312 347.84375 179.519531 348.113281 179.289062 348.347656 C 179.058594 348.582031 178.792969 348.765625 178.492188 348.890625 C 178.191406 349.019531 177.878906 349.082031 177.554688 349.082031 C 177.230469 349.082031 176.917969 349.019531 176.617188 348.890625 C 176.316406 348.765625 176.050781 348.582031 175.820312 348.347656 C 175.589844 348.113281 175.414062 347.84375 175.289062 347.535156 C 175.164062 347.230469 175.101562 346.910156 175.101562 346.578125 C 175.101562 346.246094 175.164062 345.925781 175.289062 345.617188 C 175.414062 345.3125 175.589844 345.039062 175.820312 344.804688 C 176.050781 344.570312 176.316406 344.390625 176.617188 344.261719 C 176.917969 344.136719 177.230469 344.074219 177.554688 344.074219 C 177.878906 344.074219 178.191406 344.136719 178.492188 344.261719 C 178.792969 344.390625 179.058594 344.570312 179.289062 344.804688 C 179.519531 345.039062 179.695312 345.3125 179.820312 345.617188 C 179.945312 345.925781 180.007812 346.246094 180.007812 346.578125 Z M 180.007812 346.578125 " fill-opacity="1" fill-rule="nonzero"/><g clip-path="url(#cbddefb62e)"><path fill="#4e2b14" d="M 192.207031 353.210938 L 189.757812 353.261719 L 187.019531 440.984375 L 195.117188 441.011719 Z M 192.207031 353.210938 " fill-opacity="1" fill-rule="evenodd"/></g><path fill="#4e2b14" d="M 191.152344 405.542969 L 203.347656 382.792969 L 204.496094 384.472656 L 192.191406 415.941406 Z M 191.152344 405.542969 " fill-opacity="1" fill-rule="evenodd"/><path fill="#4e2b14" d="M 189.535156 398.3125 L 189.992188 393.070312 L 176.308594 376.070312 L 175.101562 378.074219 Z M 189.535156 398.3125 " fill-opacity="1" fill-rule="evenodd"/><path fill="#6f9932" d="M 811.679688 383.636719 C 754.523438 379.894531 794.046875 287.503906 811.679688 289.109375 C 834.742188 291.207031 865.847656 382.929688 811.679688 383.636719 Z M 811.679688 383.636719 " fill-opacity="1" fill-rule="evenodd"/><g clip-path="url(#bb2083fe41)"><g clip-path="url(#676935c78c)"><path fill="#5f8b20" d="M 844.960938 363.890625 C 844.960938 363.890625 815.019531 398.484375 792.871094 350.667969 C 786.894531 337.765625 787.109375 313.9375 792.925781 296.277344 C 798.742188 278.617188 774.488281 307.347656 774.488281 307.347656 C 774.488281 307.347656 769.558594 354.9375 769.734375 356.457031 C 769.90625 357.976562 774.296875 389.277344 776.515625 391.566406 C 778.734375 393.859375 838.070312 398.269531 838.070312 398.269531 C 838.070312 398.269531 852.433594 379.273438 852.582031 377.34375 C 852.734375 375.414062 844.960938 363.890625 844.960938 363.890625 Z M 844.960938 363.890625 " fill-opacity="1" fill-rule="evenodd"/></g></g><path fill="#efc1a8" d="M 811.679688 304.578125 C 811.679688 304.875 811.707031 305.167969 811.765625 305.460938 C 811.820312 305.75 811.90625 306.035156 812.015625 306.308594 C 812.128906 306.582031 812.265625 306.84375 812.425781 307.089844 C 812.585938 307.335938 812.769531 307.5625 812.976562 307.773438 C 813.179688 307.984375 813.40625 308.171875 813.648438 308.335938 C 813.886719 308.5 814.144531 308.640625 814.410156 308.753906 C 814.679688 308.867188 814.957031 308.953125 815.242188 309.011719 C 815.527344 309.070312 815.816406 309.097656 816.105469 309.097656 C 816.398438 309.097656 816.683594 309.070312 816.96875 309.011719 C 817.253906 308.953125 817.53125 308.867188 817.800781 308.753906 C 818.066406 308.640625 818.324219 308.5 818.566406 308.335938 C 818.808594 308.171875 819.03125 307.984375 819.234375 307.773438 C 819.441406 307.5625 819.625 307.335938 819.785156 307.089844 C 819.949219 306.84375 820.085938 306.582031 820.195312 306.308594 C 820.304688 306.035156 820.390625 305.75 820.445312 305.460938 C 820.503906 305.167969 820.53125 304.875 820.53125 304.578125 C 820.53125 304.28125 820.503906 303.988281 820.445312 303.695312 C 820.390625 303.402344 820.304688 303.121094 820.195312 302.847656 C 820.085938 302.574219 819.949219 302.3125 819.785156 302.066406 C 819.625 301.820312 819.441406 301.589844 819.234375 301.378906 C 819.03125 301.171875 818.808594 300.984375 818.566406 300.816406 C 818.324219 300.652344 818.066406 300.515625 817.800781 300.398438 C 817.53125 300.285156 817.253906 300.199219 816.96875 300.144531 C 816.683594 300.085938 816.398438 300.054688 816.105469 300.054688 C 815.816406 300.054688 815.527344 300.085938 815.242188 300.144531 C 814.957031 300.199219 814.679688 300.285156 814.410156 300.398438 C 814.144531 300.515625 813.886719 300.652344 813.648438 300.816406 C 813.40625 300.984375 813.179688 301.171875 812.976562 301.378906 C 812.769531 301.589844 812.585938 301.820312 812.425781 302.066406 C 812.265625 302.3125 812.128906 302.574219 812.015625 302.847656 C 811.90625 303.121094 811.820312 303.402344 811.765625 303.695312 C 811.707031 303.988281 811.679688 304.28125 811.679688 304.578125 Z M 811.679688 304.578125 " fill-opacity="1" fill-rule="nonzero"/><path fill="#efc1a8" d="M 793.527344 336.363281 C 793.527344 336.660156 793.554688 336.953125 793.613281 337.246094 C 793.667969 337.535156 793.753906 337.820312 793.863281 338.09375 C 793.976562 338.367188 794.113281 338.628906 794.273438 338.875 C 794.433594 339.121094 794.617188 339.351562 794.824219 339.558594 C 795.03125 339.769531 795.253906 339.957031 795.496094 340.121094 C 795.738281 340.285156 795.992188 340.425781 796.261719 340.539062 C 796.527344 340.652344 796.804688 340.738281 797.089844 340.796875 C 797.375 340.855469 797.664062 340.882812 797.953125 340.882812 C 798.246094 340.882812 798.53125 340.855469 798.816406 340.796875 C 799.101562 340.738281 799.378906 340.652344 799.648438 340.539062 C 799.917969 340.425781 800.171875 340.285156 800.414062 340.121094 C 800.65625 339.957031 800.878906 339.769531 801.085938 339.558594 C 801.289062 339.351562 801.472656 339.121094 801.636719 338.875 C 801.796875 338.628906 801.933594 338.367188 802.042969 338.09375 C 802.15625 337.820312 802.238281 337.535156 802.296875 337.246094 C 802.351562 336.953125 802.382812 336.660156 802.382812 336.363281 C 802.382812 336.066406 802.351562 335.773438 802.296875 335.480469 C 802.238281 335.191406 802.15625 334.90625 802.042969 334.632812 C 801.933594 334.359375 801.796875 334.097656 801.636719 333.851562 C 801.472656 333.605469 801.289062 333.375 801.085938 333.164062 C 800.878906 332.957031 800.65625 332.769531 800.414062 332.601562 C 800.171875 332.4375 799.917969 332.300781 799.648438 332.1875 C 799.378906 332.070312 799.101562 331.984375 798.816406 331.929688 C 798.53125 331.871094 798.246094 331.839844 797.953125 331.839844 C 797.664062 331.839844 797.375 331.871094 797.089844 331.929688 C 796.804688 331.984375 796.527344 332.070312 796.261719 332.1875 C 795.992188 332.300781 795.738281 332.4375 795.496094 332.601562 C 795.253906 332.769531 795.03125 332.957031 794.824219 333.164062 C 794.617188 333.375 794.4375 333.605469 794.273438 333.851562 C 794.113281 334.097656 793.976562 334.359375 793.863281 334.632812 C 793.753906 334.90625 793.667969 335.191406 793.613281 335.480469 C 793.554688 335.773438 793.527344 336.066406 793.527344 336.363281 Z M 793.527344 336.363281 " fill-opacity="1" fill-rule="nonzero"/><path fill="#efc1a8" d="M 788.484375 344.769531 C 788.484375 345.109375 788.546875 345.4375 788.675781 345.753906 C 788.804688 346.070312 788.984375 346.347656 789.222656 346.589844 C 789.457031 346.832031 789.730469 347.019531 790.039062 347.148438 C 790.347656 347.28125 790.671875 347.34375 791.003906 347.34375 C 791.339844 347.34375 791.660156 347.28125 791.96875 347.148438 C 792.28125 347.019531 792.550781 346.832031 792.789062 346.589844 C 793.023438 346.347656 793.207031 346.070312 793.335938 345.753906 C 793.464844 345.4375 793.527344 345.109375 793.527344 344.769531 C 793.527344 344.425781 793.464844 344.097656 793.335938 343.78125 C 793.207031 343.46875 793.023438 343.1875 792.789062 342.945312 C 792.550781 342.707031 792.28125 342.519531 791.96875 342.390625 C 791.660156 342.257812 791.339844 342.191406 791.003906 342.191406 C 790.671875 342.191406 790.347656 342.257812 790.039062 342.390625 C 789.730469 342.519531 789.457031 342.707031 789.222656 342.945312 C 788.984375 343.1875 788.804688 343.46875 788.675781 343.78125 C 788.546875 344.097656 788.484375 344.425781 788.484375 344.769531 Z M 788.484375 344.769531 " fill-opacity="1" fill-rule="nonzero"/><path fill="#efc1a8" d="M 823.144531 317.003906 C 823.148438 317.347656 823.210938 317.675781 823.339844 317.992188 C 823.464844 318.308594 823.648438 318.585938 823.886719 318.828125 C 824.121094 319.070312 824.394531 319.253906 824.703125 319.386719 C 825.011719 319.515625 825.335938 319.582031 825.667969 319.582031 C 826.003906 319.582031 826.324219 319.515625 826.632812 319.386719 C 826.941406 319.253906 827.214844 319.070312 827.453125 318.828125 C 827.6875 318.585938 827.871094 318.308594 828 317.992188 C 828.125 317.675781 828.191406 317.347656 828.191406 317.003906 C 828.191406 316.664062 828.125 316.335938 828 316.019531 C 827.871094 315.703125 827.6875 315.425781 827.453125 315.183594 C 827.214844 314.941406 826.941406 314.753906 826.632812 314.625 C 826.324219 314.496094 826.003906 314.429688 825.667969 314.429688 C 825.335938 314.429688 825.011719 314.496094 824.703125 314.625 C 824.394531 314.753906 824.121094 314.941406 823.886719 315.183594 C 823.648438 315.425781 823.464844 315.703125 823.339844 316.019531 C 823.210938 316.335938 823.148438 316.664062 823.144531 317.003906 Z M 823.144531 317.003906 " fill-opacity="1" fill-rule="nonzero"/><g clip-path="url(#3f52cd832e)"><path fill="#4e2b14" d="M 810.59375 323.832031 L 813.117188 323.882812 L 815.933594 414.117188 L 807.605469 414.144531 Z M 810.59375 323.832031 " fill-opacity="1" fill-rule="evenodd"/></g><path fill="#4e2b14" d="M 811.679688 377.660156 L 799.136719 354.257812 L 797.953125 355.984375 L 810.613281 388.359375 Z M 811.679688 377.660156 " fill-opacity="1" fill-rule="evenodd"/><path fill="#4e2b14" d="M 813.34375 370.21875 L 812.871094 364.828125 L 826.953125 347.34375 L 828.191406 349.40625 Z M 813.34375 370.21875 " fill-opacity="1" fill-rule="evenodd"/><path fill="#6f9932" d="M 920.164062 359.167969 C 865.863281 355.613281 903.410156 267.832031 920.164062 269.359375 C 942.074219 271.355469 971.628906 358.496094 920.164062 359.167969 Z M 920.164062 359.167969 " fill-opacity="1" fill-rule="evenodd"/><g clip-path="url(#ff378bf534)"><g clip-path="url(#6e689cbabc)"><path fill="#5f8b20" d="M 951.785156 340.40625 C 951.785156 340.40625 923.339844 373.273438 902.296875 327.84375 C 896.617188 315.585938 896.820312 292.949219 902.347656 276.171875 C 907.875 259.390625 884.828125 286.6875 884.828125 286.6875 C 884.828125 286.6875 880.148438 331.902344 880.3125 333.34375 C 880.476562 334.789062 884.648438 364.523438 886.757812 366.703125 C 888.867188 368.878906 945.238281 373.066406 945.238281 373.066406 C 945.238281 373.066406 958.882812 355.023438 959.023438 353.1875 C 959.167969 351.355469 951.785156 340.40625 951.785156 340.40625 Z M 951.785156 340.40625 " fill-opacity="1" fill-rule="evenodd"/></g></g><path fill="#efc1a8" d="M 920.164062 284.054688 C 920.164062 284.335938 920.191406 284.617188 920.246094 284.894531 C 920.296875 285.171875 920.378906 285.4375 920.484375 285.699219 C 920.589844 285.960938 920.71875 286.207031 920.871094 286.441406 C 921.027344 286.675781 921.199219 286.894531 921.394531 287.09375 C 921.589844 287.292969 921.804688 287.46875 922.03125 287.628906 C 922.261719 287.785156 922.503906 287.917969 922.761719 288.023438 C 923.015625 288.132812 923.277344 288.214844 923.550781 288.269531 C 923.820312 288.324219 924.09375 288.351562 924.371094 288.351562 C 924.644531 288.351562 924.917969 288.324219 925.191406 288.269531 C 925.460938 288.214844 925.722656 288.132812 925.980469 288.023438 C 926.234375 287.917969 926.476562 287.785156 926.707031 287.628906 C 926.933594 287.46875 927.148438 287.292969 927.34375 287.09375 C 927.539062 286.894531 927.710938 286.675781 927.867188 286.441406 C 928.019531 286.207031 928.148438 285.960938 928.253906 285.699219 C 928.359375 285.4375 928.441406 285.171875 928.492188 284.894531 C 928.546875 284.617188 928.574219 284.335938 928.574219 284.054688 C 928.574219 283.773438 928.546875 283.496094 928.492188 283.21875 C 928.441406 282.941406 928.359375 282.671875 928.253906 282.410156 C 928.148438 282.152344 928.019531 281.902344 927.867188 281.667969 C 927.710938 281.433594 927.539062 281.21875 927.34375 281.019531 C 927.148438 280.820312 926.933594 280.640625 926.707031 280.484375 C 926.476562 280.328125 926.234375 280.195312 925.980469 280.085938 C 925.722656 279.980469 925.460938 279.898438 925.191406 279.84375 C 924.917969 279.789062 924.644531 279.761719 924.371094 279.761719 C 924.09375 279.761719 923.820312 279.789062 923.550781 279.84375 C 923.277344 279.898438 923.015625 279.980469 922.761719 280.085938 C 922.503906 280.195312 922.261719 280.328125 922.03125 280.484375 C 921.804688 280.640625 921.589844 280.820312 921.394531 281.019531 C 921.199219 281.21875 921.027344 281.433594 920.871094 281.667969 C 920.71875 281.902344 920.589844 282.152344 920.484375 282.410156 C 920.378906 282.671875 920.296875 282.941406 920.246094 283.21875 C 920.191406 283.496094 920.164062 283.773438 920.164062 284.054688 Z M 920.164062 284.054688 " fill-opacity="1" fill-rule="nonzero"/><path fill="#efc1a8" d="M 902.917969 314.253906 C 902.917969 314.535156 902.945312 314.816406 903 315.089844 C 903.054688 315.367188 903.132812 315.636719 903.238281 315.898438 C 903.34375 316.15625 903.472656 316.40625 903.628906 316.640625 C 903.78125 316.875 903.957031 317.089844 904.152344 317.292969 C 904.347656 317.492188 904.558594 317.667969 904.789062 317.824219 C 905.019531 317.980469 905.261719 318.113281 905.515625 318.222656 C 905.769531 318.332031 906.035156 318.410156 906.304688 318.464844 C 906.574219 318.523438 906.847656 318.550781 907.125 318.550781 C 907.402344 318.550781 907.675781 318.523438 907.945312 318.464844 C 908.214844 318.410156 908.480469 318.332031 908.734375 318.222656 C 908.988281 318.113281 909.230469 317.980469 909.460938 317.824219 C 909.691406 317.667969 909.902344 317.492188 910.097656 317.292969 C 910.292969 317.089844 910.46875 316.875 910.621094 316.640625 C 910.773438 316.40625 910.902344 316.15625 911.011719 315.898438 C 911.117188 315.636719 911.195312 315.367188 911.25 315.089844 C 911.304688 314.816406 911.328125 314.535156 911.328125 314.253906 C 911.328125 313.972656 911.304688 313.691406 911.25 313.414062 C 911.195312 313.140625 911.117188 312.871094 911.011719 312.609375 C 910.902344 312.347656 910.773438 312.101562 910.621094 311.867188 C 910.46875 311.632812 910.292969 311.414062 910.097656 311.214844 C 909.902344 311.015625 909.691406 310.839844 909.460938 310.683594 C 909.230469 310.527344 908.988281 310.394531 908.734375 310.285156 C 908.480469 310.175781 908.214844 310.097656 907.945312 310.039062 C 907.675781 309.984375 907.402344 309.957031 907.125 309.957031 C 906.847656 309.957031 906.574219 309.984375 906.304688 310.039062 C 906.035156 310.097656 905.769531 310.175781 905.515625 310.285156 C 905.261719 310.394531 905.019531 310.527344 904.789062 310.683594 C 904.558594 310.839844 904.347656 311.015625 904.152344 311.214844 C 903.957031 311.414062 903.78125 311.632812 903.628906 311.867188 C 903.472656 312.101562 903.34375 312.347656 903.238281 312.609375 C 903.132812 312.871094 903.054688 313.140625 903 313.414062 C 902.945312 313.691406 902.917969 313.972656 902.917969 314.253906 Z M 902.917969 314.253906 " fill-opacity="1" fill-rule="nonzero"/><path fill="#efc1a8" d="M 898.125 322.238281 C 898.125 322.566406 898.1875 322.875 898.308594 323.175781 C 898.429688 323.476562 898.601562 323.742188 898.828125 323.96875 C 899.050781 324.199219 899.3125 324.375 899.605469 324.5 C 899.898438 324.625 900.203125 324.6875 900.523438 324.6875 C 900.839844 324.6875 901.144531 324.625 901.4375 324.5 C 901.734375 324.375 901.992188 324.199219 902.214844 323.96875 C 902.441406 323.742188 902.613281 323.476562 902.734375 323.175781 C 902.859375 322.875 902.917969 322.566406 902.917969 322.238281 C 902.917969 321.914062 902.859375 321.601562 902.734375 321.304688 C 902.613281 321.003906 902.441406 320.738281 902.214844 320.507812 C 901.992188 320.28125 901.734375 320.101562 901.4375 319.980469 C 901.144531 319.855469 900.839844 319.792969 900.523438 319.792969 C 900.203125 319.792969 899.898438 319.855469 899.605469 319.980469 C 899.3125 320.101562 899.050781 320.28125 898.828125 320.507812 C 898.601562 320.738281 898.429688 321.003906 898.308594 321.304688 C 898.1875 321.601562 898.125 321.914062 898.125 322.238281 Z M 898.125 322.238281 " fill-opacity="1" fill-rule="nonzero"/><path fill="#efc1a8" d="M 931.058594 295.863281 C 931.058594 296.1875 931.121094 296.5 931.242188 296.800781 C 931.363281 297.097656 931.535156 297.363281 931.761719 297.59375 C 931.984375 297.824219 932.242188 298 932.539062 298.125 C 932.832031 298.25 933.136719 298.308594 933.453125 298.308594 C 933.773438 298.308594 934.078125 298.25 934.371094 298.125 C 934.664062 298 934.925781 297.824219 935.148438 297.59375 C 935.375 297.363281 935.546875 297.097656 935.667969 296.800781 C 935.789062 296.5 935.851562 296.1875 935.851562 295.863281 C 935.851562 295.539062 935.789062 295.226562 935.667969 294.925781 C 935.546875 294.625 935.375 294.363281 935.148438 294.132812 C 934.925781 293.902344 934.664062 293.726562 934.371094 293.601562 C 934.078125 293.476562 933.773438 293.414062 933.453125 293.414062 C 933.136719 293.414062 932.832031 293.476562 932.539062 293.601562 C 932.242188 293.726562 931.984375 293.902344 931.761719 294.132812 C 931.535156 294.363281 931.363281 294.625 931.242188 294.925781 C 931.121094 295.226562 931.058594 295.539062 931.058594 295.863281 Z M 931.058594 295.863281 " fill-opacity="1" fill-rule="nonzero"/><g clip-path="url(#294c44a9b1)"><path fill="#4e2b14" d="M 919.132812 302.347656 L 921.527344 302.398438 L 924.207031 388.125 L 916.292969 388.148438 Z M 919.132812 302.347656 " fill-opacity="1" fill-rule="evenodd"/></g><path fill="#4e2b14" d="M 920.164062 353.488281 L 908.25 331.253906 L 907.125 332.898438 L 919.152344 363.652344 Z M 920.164062 353.488281 " fill-opacity="1" fill-rule="evenodd"/><path fill="#4e2b14" d="M 921.742188 346.421875 L 921.296875 341.296875 L 934.671875 324.6875 L 935.851562 326.644531 Z M 921.742188 346.421875 " fill-opacity="1" fill-rule="evenodd"/><path fill="#5c7a47" d="M 867.703125 358.558594 C 796.875 353.921875 845.851562 239.429688 867.703125 241.417969 C 896.28125 244.023438 934.828125 357.679688 867.703125 358.558594 Z M 867.703125 358.558594 " fill-opacity="1" fill-rule="evenodd"/><g clip-path="url(#8ff6e8dd6c)"><g clip-path="url(#bf875f1baa)"><path fill="#5c7a47" d="M 908.945312 334.085938 C 908.945312 334.085938 871.84375 376.957031 844.398438 317.703125 C 836.992188 301.710938 837.253906 272.1875 844.464844 250.304688 C 851.671875 228.417969 821.613281 264.023438 821.613281 264.023438 C 821.613281 264.023438 815.507812 322.996094 815.722656 324.878906 C 815.9375 326.761719 821.378906 365.546875 824.128906 368.382812 C 826.878906 371.222656 900.40625 376.6875 900.40625 376.6875 C 900.40625 376.6875 918.207031 353.152344 918.390625 350.761719 C 918.574219 348.371094 908.945312 334.085938 908.945312 334.085938 Z M 908.945312 334.085938 " fill-opacity="1" fill-rule="evenodd"/></g></g><path fill="#ffa09a" d="M 867.703125 260.589844 C 867.703125 260.957031 867.738281 261.320312 867.808594 261.679688 C 867.878906 262.042969 867.980469 262.394531 868.121094 262.734375 C 868.257812 263.074219 868.425781 263.394531 868.625 263.699219 C 868.828125 264.007812 869.054688 264.289062 869.308594 264.550781 C 869.5625 264.808594 869.839844 265.042969 870.140625 265.246094 C 870.4375 265.453125 870.753906 265.625 871.089844 265.765625 C 871.421875 265.90625 871.765625 266.011719 872.117188 266.082031 C 872.46875 266.15625 872.828125 266.191406 873.1875 266.191406 C 873.546875 266.191406 873.902344 266.15625 874.257812 266.082031 C 874.609375 266.011719 874.953125 265.90625 875.285156 265.765625 C 875.617188 265.625 875.933594 265.453125 876.234375 265.246094 C 876.535156 265.042969 876.8125 264.808594 877.066406 264.550781 C 877.320312 264.289062 877.546875 264.007812 877.746094 263.699219 C 877.949219 263.394531 878.117188 263.074219 878.253906 262.734375 C 878.394531 262.394531 878.496094 262.042969 878.566406 261.679688 C 878.636719 261.320312 878.671875 260.957031 878.671875 260.589844 C 878.671875 260.21875 878.636719 259.855469 878.566406 259.496094 C 878.496094 259.132812 878.394531 258.785156 878.253906 258.445312 C 878.117188 258.105469 877.949219 257.78125 877.746094 257.476562 C 877.546875 257.167969 877.320312 256.886719 877.066406 256.625 C 876.8125 256.367188 876.535156 256.132812 876.234375 255.929688 C 875.933594 255.726562 875.617188 255.554688 875.285156 255.414062 C 874.953125 255.269531 874.609375 255.164062 874.257812 255.09375 C 873.902344 255.023438 873.546875 254.984375 873.1875 254.984375 C 872.828125 254.984375 872.46875 255.023438 872.117188 255.09375 C 871.765625 255.164062 871.421875 255.269531 871.089844 255.414062 C 870.753906 255.554688 870.4375 255.726562 870.140625 255.929688 C 869.839844 256.132812 869.5625 256.367188 869.308594 256.625 C 869.054688 256.886719 868.828125 257.167969 868.625 257.476562 C 868.425781 257.78125 868.257812 258.105469 868.121094 258.445312 C 867.980469 258.785156 867.878906 259.132812 867.808594 259.496094 C 867.738281 259.855469 867.703125 260.21875 867.703125 260.589844 Z M 867.703125 260.589844 " fill-opacity="1" fill-rule="nonzero"/><path fill="#ffa09a" d="M 845.210938 299.976562 C 845.210938 300.34375 845.246094 300.707031 845.316406 301.070312 C 845.386719 301.429688 845.488281 301.78125 845.628906 302.121094 C 845.765625 302.460938 845.933594 302.785156 846.132812 303.089844 C 846.332031 303.394531 846.5625 303.679688 846.816406 303.9375 C 847.070312 304.199219 847.347656 304.429688 847.648438 304.636719 C 847.945312 304.839844 848.261719 305.011719 848.59375 305.152344 C 848.929688 305.292969 849.269531 305.398438 849.625 305.472656 C 849.976562 305.542969 850.335938 305.578125 850.695312 305.578125 C 851.054688 305.578125 851.410156 305.542969 851.765625 305.472656 C 852.117188 305.398438 852.460938 305.292969 852.792969 305.152344 C 853.125 305.011719 853.441406 304.839844 853.742188 304.636719 C 854.042969 304.429688 854.320312 304.199219 854.574219 303.9375 C 854.828125 303.679688 855.054688 303.394531 855.253906 303.089844 C 855.457031 302.78125 855.625 302.460938 855.761719 302.121094 C 855.898438 301.78125 856.003906 301.429688 856.074219 301.070312 C 856.144531 300.707031 856.179688 300.34375 856.179688 299.976562 C 856.179688 299.609375 856.144531 299.246094 856.074219 298.882812 C 856.003906 298.523438 855.898438 298.171875 855.761719 297.832031 C 855.625 297.492188 855.457031 297.167969 855.253906 296.863281 C 855.054688 296.558594 854.828125 296.273438 854.574219 296.015625 C 854.320312 295.753906 854.042969 295.523438 853.742188 295.316406 C 853.441406 295.113281 853.125 294.941406 852.792969 294.800781 C 852.460938 294.660156 852.117188 294.554688 851.765625 294.480469 C 851.410156 294.410156 851.054688 294.375 850.695312 294.375 C 850.335938 294.375 849.976562 294.410156 849.625 294.480469 C 849.269531 294.554688 848.929688 294.660156 848.59375 294.800781 C 848.261719 294.941406 847.945312 295.113281 847.648438 295.316406 C 847.347656 295.523438 847.070312 295.753906 846.816406 296.015625 C 846.5625 296.273438 846.335938 296.558594 846.132812 296.863281 C 845.933594 297.167969 845.765625 297.492188 845.628906 297.832031 C 845.488281 298.171875 845.386719 298.523438 845.316406 298.882812 C 845.246094 299.242188 845.210938 299.609375 845.210938 299.976562 Z M 845.210938 299.976562 " fill-opacity="1" fill-rule="nonzero"/><path fill="#ffa09a" d="M 838.957031 310.394531 C 838.957031 310.816406 839.035156 311.222656 839.195312 311.613281 C 839.355469 312.003906 839.582031 312.351562 839.875 312.648438 C 840.167969 312.949219 840.503906 313.179688 840.886719 313.34375 C 841.269531 313.503906 841.667969 313.585938 842.082031 313.585938 C 842.496094 313.585938 842.894531 313.503906 843.277344 313.34375 C 843.664062 313.179688 844 312.949219 844.292969 312.648438 C 844.585938 312.351562 844.8125 312.003906 844.96875 311.613281 C 845.128906 311.222656 845.207031 310.816406 845.207031 310.394531 C 845.207031 309.96875 845.128906 309.5625 844.96875 309.171875 C 844.8125 308.78125 844.585938 308.433594 844.292969 308.136719 C 844 307.835938 843.664062 307.605469 843.277344 307.445312 C 842.894531 307.28125 842.496094 307.199219 842.082031 307.199219 C 841.667969 307.199219 841.269531 307.28125 840.886719 307.445312 C 840.503906 307.605469 840.167969 307.835938 839.875 308.136719 C 839.582031 308.433594 839.355469 308.78125 839.195312 309.171875 C 839.035156 309.5625 838.957031 309.96875 838.957031 310.394531 Z M 838.957031 310.394531 " fill-opacity="1" fill-rule="nonzero"/><path fill="#ffa09a" d="M 881.910156 275.988281 C 881.910156 276.414062 881.992188 276.820312 882.148438 277.210938 C 882.308594 277.601562 882.535156 277.945312 882.828125 278.246094 C 883.121094 278.546875 883.457031 278.777344 883.839844 278.9375 C 884.222656 279.101562 884.621094 279.179688 885.039062 279.179688 C 885.453125 279.179688 885.851562 279.101562 886.234375 278.9375 C 886.617188 278.777344 886.953125 278.546875 887.246094 278.246094 C 887.539062 277.945312 887.765625 277.601562 887.925781 277.210938 C 888.082031 276.820312 888.164062 276.414062 888.164062 275.988281 C 888.164062 275.566406 888.082031 275.160156 887.925781 274.765625 C 887.765625 274.375 887.539062 274.03125 887.246094 273.730469 C 886.953125 273.433594 886.617188 273.203125 886.234375 273.039062 C 885.851562 272.878906 885.453125 272.796875 885.039062 272.796875 C 884.621094 272.796875 884.222656 272.878906 883.839844 273.039062 C 883.457031 273.203125 883.121094 273.433594 882.828125 273.730469 C 882.535156 274.03125 882.308594 274.375 882.148438 274.765625 C 881.992188 275.160156 881.910156 275.566406 881.910156 275.988281 Z M 881.910156 275.988281 " fill-opacity="1" fill-rule="nonzero"/><g clip-path="url(#76fa5938c7)"><path fill="#4e2b14" d="M 866.359375 284.445312 L 869.480469 284.511719 L 872.972656 396.328125 L 862.652344 396.359375 Z M 866.359375 284.445312 " fill-opacity="1" fill-rule="evenodd"/></g><path fill="#4e2b14" d="M 867.703125 351.152344 L 852.160156 322.152344 L 850.695312 324.292969 L 866.382812 364.40625 Z M 867.703125 351.152344 " fill-opacity="1" fill-rule="evenodd"/><path fill="#4e2b14" d="M 869.761719 341.933594 L 869.179688 335.25 L 886.628906 313.585938 L 888.164062 316.140625 Z M 869.761719 341.933594 " fill-opacity="1" fill-rule="evenodd"/><g clip-path="url(#32a9db8784)"><path fill="#85ab5e" d="M 1039.378906 383.132812 C 1039.378906 383.132812 942.828125 369.117188 773.144531 413.359375 C 604.015625 457.667969 430.679688 542.691406 430.679688 542.691406 L 325.058594 706.640625 L 1049.1875 676.105469 Z M 1039.378906 383.132812 " fill-opacity="1" fill-rule="evenodd"/></g><g clip-path="url(#b108a4c53e)"><g clip-path="url(#c3dcc02888)"><path fill="#6e925f" d="M 722.4375 532.863281 C 722.367188 532.578125 722.546875 532.292969 722.824219 532.21875 C 723.109375 532.148438 723.394531 532.332031 723.464844 532.609375 C 724.21875 534.398438 725.351562 535.738281 726.769531 536.71875 C 727.402344 537.167969 728.121094 537.4375 728.90625 537.667969 C 729.613281 537.875 730.371094 537.96875 731.203125 537.953125 C 731.773438 538 732.335938 537.890625 732.890625 537.699219 C 733.847656 537.367188 734.78125 536.875 735.566406 536.148438 C 737.03125 534.792969 738.15625 533.058594 738.070312 531.191406 C 738.015625 530.914062 738.1875 530.644531 738.464844 530.589844 C 738.734375 530.535156 739.003906 530.707031 739.058594 530.984375 C 739.914062 533.257812 739.296875 535.910156 737.902344 538.105469 C 737.03125 539.472656 735.773438 540.558594 734.402344 541.25 C 733.339844 541.785156 732.160156 541.984375 731.003906 541.953125 C 730.007812 541.851562 729.074219 541.683594 728.234375 541.335938 C 726.847656 540.773438 725.660156 539.980469 724.757812 538.886719 C 723.417969 537.257812 722.621094 535.222656 722.4375 532.863281 Z M 722.4375 532.863281 " fill-opacity="0.1" fill-rule="evenodd"/></g></g><g clip-path="url(#9e6f003383)"><g clip-path="url(#fe8139b2b4)"><path fill="#6e925f" d="M 817.035156 571.308594 C 816.960938 571.023438 817.144531 570.742188 817.421875 570.667969 C 817.707031 570.597656 817.992188 570.78125 818.0625 571.058594 C 818.816406 572.847656 819.949219 574.183594 821.367188 575.167969 C 822 575.617188 822.71875 575.886719 823.503906 576.117188 C 824.207031 576.324219 824.96875 576.417969 825.800781 576.402344 C 826.371094 576.449219 826.933594 576.339844 827.488281 576.148438 C 828.445312 575.816406 829.378906 575.324219 830.164062 574.597656 C 831.628906 573.242188 832.753906 571.507812 832.667969 569.640625 C 832.609375 569.363281 832.785156 569.09375 833.0625 569.039062 C 833.332031 568.980469 833.601562 569.15625 833.65625 569.433594 C 834.511719 571.707031 833.894531 574.359375 832.5 576.554688 C 831.628906 577.921875 830.371094 579.007812 829 579.695312 C 827.9375 580.234375 826.757812 580.433594 825.601562 580.402344 C 824.605469 580.296875 823.671875 580.132812 822.832031 579.785156 C 821.445312 579.222656 820.257812 578.429688 819.355469 577.335938 C 818.015625 575.707031 817.214844 573.671875 817.035156 571.308594 Z M 817.035156 571.308594 " fill-opacity="0.1" fill-rule="evenodd"/></g></g><g clip-path="url(#1b30b252be)"><g clip-path="url(#9171add203)"><path fill="#6e925f" d="M 591.167969 500.726562 C 591.097656 500.441406 591.28125 500.15625 591.554688 500.085938 C 591.839844 500.015625 592.125 500.195312 592.199219 500.472656 C 592.949219 502.261719 594.082031 503.601562 595.5 504.582031 C 596.132812 505.035156 596.855469 505.304688 597.636719 505.535156 C 598.34375 505.738281 599.105469 505.835938 599.933594 505.820312 C 600.503906 505.867188 601.066406 505.757812 601.621094 505.566406 C 602.578125 505.234375 603.515625 504.742188 604.296875 504.011719 C 605.761719 502.660156 606.886719 500.925781 606.800781 499.054688 C 606.746094 498.777344 606.917969 498.511719 607.195312 498.453125 C 607.464844 498.398438 607.734375 498.574219 607.789062 498.851562 C 608.644531 501.125 608.027344 503.777344 606.632812 505.96875 C 605.761719 507.339844 604.503906 508.425781 603.132812 509.113281 C 602.074219 509.652344 600.894531 509.851562 599.738281 509.820312 C 598.738281 509.714844 597.804688 509.550781 596.964844 509.199219 C 595.578125 508.636719 594.390625 507.847656 593.488281 506.753906 C 592.152344 505.121094 591.351562 503.085938 591.167969 500.726562 Z M 591.167969 500.726562 " fill-opacity="0.1" fill-rule="evenodd"/></g></g><g clip-path="url(#1fb67c7f20)"><g clip-path="url(#3255e99833)"><path fill="#6e925f" d="M 729.445312 526.058594 C 729.367188 525.773438 729.53125 525.488281 729.816406 525.410156 C 730.101562 525.339844 730.386719 525.503906 730.46875 525.789062 C 730.917969 526.558594 731.355469 527.285156 731.8125 528.164062 C 732.097656 528.710938 732.34375 529.234375 732.582031 529.820312 C 732.8125 530.390625 732.992188 530.960938 733.152344 531.554688 C 733.253906 531.949219 733.339844 532.347656 733.382812 532.75 C 733.429688 533.164062 733.445312 533.574219 733.429688 533.976562 C 733.40625 534.621094 733.339844 535.230469 733.222656 535.847656 C 733.113281 536.488281 732.984375 537.082031 732.789062 537.683594 C 732.46875 538.652344 732.136719 539.464844 731.664062 540.296875 C 731.589844 540.566406 731.324219 540.734375 731.046875 540.664062 C 730.777344 540.597656 730.609375 540.320312 730.671875 540.042969 C 730.65625 538.878906 730.394531 537.804688 730.117188 536.574219 C 730.015625 536.117188 729.890625 535.695312 729.792969 535.238281 C 729.660156 534.574219 729.484375 533.914062 729.390625 533.234375 C 729.34375 532.871094 729.335938 532.503906 729.3125 532.140625 C 729.289062 531.570312 729.277344 531.015625 729.289062 530.460938 C 729.3125 528.855469 729.445312 527.453125 729.445312 526.058594 Z M 729.445312 526.058594 " fill-opacity="0.1" fill-rule="evenodd"/></g></g><g clip-path="url(#de18b69887)"><g clip-path="url(#21c0754d09)"><path fill="#6e925f" d="M 824.042969 564.507812 C 823.964844 564.222656 824.128906 563.9375 824.414062 563.859375 C 824.699219 563.789062 824.984375 563.953125 825.0625 564.238281 C 825.515625 565.007812 825.949219 565.734375 826.410156 566.613281 C 826.695312 567.160156 826.941406 567.683594 827.179688 568.269531 C 827.40625 568.839844 827.589844 569.410156 827.75 570.003906 C 827.851562 570.398438 827.9375 570.796875 827.976562 571.199219 C 828.027344 571.613281 828.042969 572.023438 828.027344 572.425781 C 828 573.070312 827.9375 573.679688 827.820312 574.296875 C 827.707031 574.9375 827.582031 575.53125 827.382812 576.132812 C 827.066406 577.097656 826.734375 577.914062 826.257812 578.746094 C 826.1875 579.015625 825.917969 579.183594 825.640625 579.109375 C 825.371094 579.046875 825.207031 578.769531 825.269531 578.492188 C 825.253906 577.328125 824.992188 576.25 824.714844 575.023438 C 824.613281 574.566406 824.484375 574.144531 824.390625 573.6875 C 824.257812 573.019531 824.082031 572.363281 823.988281 571.683594 C 823.9375 571.316406 823.929688 570.953125 823.90625 570.589844 C 823.882812 570.019531 823.875 569.464844 823.882812 568.910156 C 823.90625 567.304688 824.042969 565.902344 824.042969 564.507812 Z M 824.042969 564.507812 " fill-opacity="0.1" fill-rule="evenodd"/></g></g><g clip-path="url(#c01272787a)"><g clip-path="url(#32aaae3735)"><path fill="#6e925f" d="M 598.175781 493.925781 C 598.097656 493.640625 598.265625 493.355469 598.550781 493.273438 C 598.835938 493.203125 599.121094 493.371094 599.199219 493.65625 C 599.648438 494.421875 600.085938 495.152344 600.542969 496.03125 C 600.828125 496.578125 601.074219 497.101562 601.3125 497.6875 C 601.542969 498.257812 601.726562 498.828125 601.882812 499.421875 C 601.984375 499.816406 602.074219 500.210938 602.113281 500.617188 C 602.160156 501.027344 602.175781 501.441406 602.160156 501.84375 C 602.136719 502.484375 602.074219 503.09375 601.953125 503.710938 C 601.84375 504.355469 601.714844 504.949219 601.519531 505.550781 C 601.203125 506.515625 600.871094 507.332031 600.394531 508.164062 C 600.324219 508.433594 600.054688 508.597656 599.777344 508.527344 C 599.507812 508.464844 599.339844 508.1875 599.40625 507.910156 C 599.386719 506.746094 599.128906 505.667969 598.851562 504.441406 C 598.746094 503.980469 598.621094 503.5625 598.523438 503.101562 C 598.390625 502.4375 598.214844 501.78125 598.121094 501.097656 C 598.074219 500.734375 598.066406 500.371094 598.042969 500.007812 C 598.019531 499.4375 598.011719 498.882812 598.019531 498.328125 C 598.042969 496.71875 598.175781 495.316406 598.175781 493.925781 Z M 598.175781 493.925781 " fill-opacity="0.1" fill-rule="evenodd"/></g></g><g clip-path="url(#c890385781)"><g clip-path="url(#cdd09d0ef6)"><path fill="#6e925f" d="M 767.441406 499.492188 C 767.378906 499.207031 767.558594 498.921875 767.84375 498.863281 C 768.128906 498.800781 768.414062 498.976562 768.480469 499.269531 C 768.828125 500.085938 769.199219 501.121094 769.777344 502.007812 C 770.023438 502.378906 770.371094 502.609375 770.785156 502.769531 C 771.347656 503.007812 771.972656 503.054688 772.621094 503.132812 C 773.128906 503.203125 773.640625 503.210938 774.148438 503.242188 C 774.710938 503.277344 775.257812 503.316406 775.773438 503.332031 L 777.625 503.449219 C 778.472656 503.210938 779.265625 502.617188 779.851562 501.808594 C 780.554688 500.828125 781.101562 499.757812 781.132812 498.699219 C 781.09375 498.421875 781.285156 498.160156 781.5625 498.121094 C 781.839844 498.082031 782.101562 498.261719 782.140625 498.539062 C 782.597656 499.832031 782.503906 501.398438 782.050781 502.894531 C 781.554688 504.574219 780.382812 505.90625 779.074219 506.726562 C 778.574219 507.003906 778.039062 507.140625 777.484375 507.242188 C 776.859375 507.355469 776.199219 507.324219 775.574219 507.332031 C 774.980469 507.289062 774.339844 507.257812 773.699219 507.148438 C 773.046875 507.039062 772.398438 506.886719 771.78125 506.664062 C 770.847656 506.324219 769.984375 505.929688 769.253906 505.359375 C 768.472656 504.691406 767.894531 503.902344 767.671875 502.886719 C 767.417969 501.730469 767.464844 500.496094 767.441406 499.492188 Z M 767.441406 499.492188 " fill-opacity="0.1" fill-rule="evenodd"/></g></g><g clip-path="url(#ebf117281c)"><g clip-path="url(#f325c09530)"><path fill="#6e925f" d="M 774.15625 491.585938 C 774.078125 491.300781 774.242188 491.007812 774.527344 490.9375 C 774.804688 490.859375 775.097656 491.023438 775.179688 491.300781 C 775.773438 492.324219 776.222656 493.25 776.644531 494.3125 C 776.824219 494.769531 776.960938 495.214844 777.085938 495.6875 C 777.277344 496.417969 777.386719 497.136719 777.460938 497.890625 C 777.492188 498.199219 777.5 498.523438 777.484375 498.832031 C 777.460938 499.253906 777.410156 499.671875 777.332031 500.085938 C 777.214844 500.710938 777.054688 501.304688 776.867188 501.914062 C 776.667969 502.515625 776.46875 503.078125 776.214844 503.671875 C 775.851562 504.550781 775.464844 505.328125 775.027344 506.199219 C 774.972656 506.476562 774.703125 506.65625 774.425781 506.601562 C 774.15625 506.546875 773.976562 506.277344 774.03125 506 C 773.949219 504.441406 773.761719 503.046875 773.617188 501.527344 C 773.570312 500.949219 773.515625 500.394531 773.484375 499.824219 C 773.46875 499.441406 773.445312 499.078125 773.460938 498.707031 C 773.484375 498.152344 773.554688 497.605469 773.601562 497.050781 C 773.640625 496.679688 773.691406 496.316406 773.746094 495.941406 C 773.933594 494.46875 774.171875 493.132812 774.15625 491.585938 Z M 774.15625 491.585938 " fill-opacity="0.1" fill-rule="evenodd"/></g></g><g clip-path="url(#3add13b1e1)"><g clip-path="url(#aa7b215657)"><path fill="#6e925f" d="M 903.960938 448.191406 C 903.894531 447.90625 904.070312 447.621094 904.355469 447.554688 C 904.640625 447.484375 904.925781 447.660156 904.988281 447.945312 C 905.433594 448.894531 905.980469 449.820312 906.644531 450.699219 C 907.191406 451.414062 907.855469 451.960938 908.679688 452.324219 L 909.96875 452.539062 C 910.515625 452.609375 911 452.511719 911.441406 452.394531 C 912.226562 452.171875 912.925781 451.816406 913.453125 451.199219 C 914.601562 449.867188 915.402344 448.132812 915.464844 446.367188 C 915.425781 446.089844 915.625 445.828125 915.902344 445.789062 C 916.179688 445.75 916.433594 445.941406 916.472656 446.226562 C 917.082031 448 917.082031 449.996094 916.574219 451.824219 C 916.328125 452.726562 915.878906 453.511719 915.339844 454.222656 C 914.53125 455.285156 913.382812 456.03125 912.03125 456.371094 C 911.238281 456.558594 910.359375 456.550781 909.417969 456.386719 C 908.972656 456.28125 908.511719 456.179688 908.085938 455.980469 C 907.617188 455.777344 907.175781 455.546875 906.792969 455.230469 C 905.921875 454.453125 905.203125 453.589844 904.785156 452.519531 C 904.230469 451.121094 904.023438 449.628906 903.960938 448.191406 Z M 903.960938 448.191406 " fill-opacity="0.1" fill-rule="evenodd"/></g></g><g clip-path="url(#eced52e2d4)"><g clip-path="url(#9cdef5c584)"><path fill="#6e925f" d="M 979.652344 521.480469 C 979.589844 521.195312 979.765625 520.910156 980.050781 520.847656 C 980.335938 520.777344 980.621094 520.949219 980.683594 521.234375 C 981.125 522.183594 981.671875 523.113281 982.339844 523.992188 C 982.882812 524.703125 983.550781 525.25 984.375 525.613281 L 985.664062 525.828125 C 986.210938 525.898438 986.695312 525.804688 987.136719 525.683594 C 987.921875 525.464844 988.617188 525.105469 989.148438 524.488281 C 990.296875 523.160156 991.097656 521.425781 991.160156 519.660156 C 991.121094 519.382812 991.316406 519.121094 991.59375 519.082031 C 991.871094 519.042969 992.125 519.230469 992.164062 519.515625 C 992.773438 521.289062 992.773438 523.285156 992.269531 525.113281 C 992.023438 526.019531 991.570312 526.800781 991.03125 527.515625 C 990.226562 528.574219 989.078125 529.320312 987.722656 529.660156 C 986.929688 529.851562 986.050781 529.84375 985.109375 529.675781 C 984.667969 529.574219 984.207031 529.472656 983.777344 529.273438 C 983.3125 529.066406 982.867188 528.835938 982.488281 528.519531 C 981.617188 527.746094 980.898438 526.882812 980.476562 525.8125 C 979.921875 524.410156 979.714844 522.921875 979.652344 521.480469 Z M 979.652344 521.480469 " fill-opacity="0.1" fill-rule="evenodd"/></g></g><g clip-path="url(#511ccdec7c)"><g clip-path="url(#0a1d83174c)"><path fill="#6e925f" d="M 909.890625 441.292969 C 909.84375 441.007812 910.042969 440.730469 910.328125 440.691406 C 910.621094 440.640625 910.890625 440.839844 910.9375 441.125 C 911.433594 442.226562 911.988281 443.253906 912.464844 444.5 C 912.765625 445.28125 913.003906 446.074219 913.160156 446.898438 C 913.273438 447.46875 913.335938 448.046875 913.320312 448.609375 C 913.28125 449.535156 913.058594 450.40625 912.804688 451.238281 C 912.535156 451.910156 912.289062 452.539062 911.886719 453.125 C 911.316406 453.9375 910.722656 454.597656 910.042969 455.324219 C 909.914062 455.570312 909.605469 455.664062 909.359375 455.539062 C 909.105469 455.410156 909.011719 455.101562 909.140625 454.847656 C 909.296875 454.105469 909.390625 453.425781 909.496094 452.664062 C 909.582031 452.007812 909.574219 451.398438 909.527344 450.730469 C 909.527344 450.160156 909.398438 449.605469 909.34375 449.003906 C 909.320312 448.777344 909.304688 448.539062 909.296875 448.300781 C 909.289062 447.9375 909.304688 447.578125 909.320312 447.214844 C 909.351562 446.4375 909.40625 445.695312 909.472656 444.925781 C 909.574219 443.621094 909.757812 442.480469 909.890625 441.292969 Z M 909.890625 441.292969 " fill-opacity="0.1" fill-rule="evenodd"/></g></g><g clip-path="url(#2e2bd2b37a)"><g clip-path="url(#978616c946)"><path fill="#6e925f" d="M 985.585938 514.582031 C 985.539062 514.296875 985.734375 514.019531 986.019531 513.980469 C 986.3125 513.933594 986.582031 514.132812 986.628906 514.417969 C 987.128906 515.515625 987.683594 516.546875 988.160156 517.789062 C 988.460938 518.574219 988.695312 519.367188 988.855469 520.191406 C 988.964844 520.757812 989.03125 521.335938 989.015625 521.898438 C 988.972656 522.828125 988.753906 523.699219 988.5 524.527344 C 988.230469 525.203125 987.984375 525.828125 987.582031 526.414062 C 987.011719 527.230469 986.417969 527.886719 985.734375 528.617188 C 985.609375 528.859375 985.300781 528.957031 985.054688 528.828125 C 984.800781 528.703125 984.707031 528.394531 984.832031 528.140625 C 984.992188 527.394531 985.085938 526.714844 985.1875 525.953125 C 985.277344 525.296875 985.269531 524.6875 985.21875 524.023438 C 985.21875 523.453125 985.09375 522.898438 985.039062 522.296875 C 985.015625 522.066406 985 521.828125 984.992188 521.589844 C 984.984375 521.226562 985 520.871094 985.015625 520.507812 C 985.046875 519.730469 985.101562 518.984375 985.164062 518.21875 C 985.269531 516.910156 985.449219 515.769531 985.585938 514.582031 Z M 985.585938 514.582031 " fill-opacity="0.1" fill-rule="evenodd"/></g></g><g clip-path="url(#7604fe31be)"><path fill="#6e925f" d="M -52.007812 418.367188 C -52.007812 418.367188 68.273438 406.84375 146.078125 418.761719 C 223.886719 430.679688 455.21875 489.949219 571.578125 550.015625 C 687.933594 610.074219 790.484375 684.933594 790.484375 684.933594 L -17.855469 706.640625 Z M -52.007812 418.367188 " fill-opacity="1" fill-rule="evenodd"/></g><g clip-path="url(#5bc13299ac)"><g clip-path="url(#759d60e779)"><path fill="#6e925f" d="M 91.578125 436.585938 C 91.488281 436.3125 91.640625 436.007812 91.917969 435.921875 C 92.199219 435.828125 92.496094 435.984375 92.585938 436.261719 C 93.296875 437.761719 94.003906 439.066406 94.871094 440.277344 C 95.667969 441.386719 96.628906 442.328125 97.929688 443.183594 C 99.332031 444.214844 100.707031 444.679688 101.984375 444.863281 C 102.664062 444.964844 103.320312 444.980469 103.957031 444.886719 C 104.640625 444.777344 105.304688 444.609375 105.933594 444.300781 C 107.265625 443.644531 108.480469 442.644531 109.464844 441.316406 C 110.445312 439.984375 111.257812 438.480469 111.75 436.746094 C 111.792969 436.46875 112.050781 436.277344 112.328125 436.320312 C 112.605469 436.359375 112.796875 436.621094 112.757812 436.898438 C 112.703125 439.359375 112.078125 441.640625 111.039062 443.589844 C 110.207031 445.132812 109.066406 446.382812 107.765625 447.328125 C 106.65625 448.125 105.394531 448.632812 104.058594 448.855469 C 103.179688 448.996094 102.257812 448.996094 101.324219 448.824219 C 99.496094 448.472656 97.609375 447.492188 95.773438 445.789062 C 94.691406 444.671875 93.855469 443.574219 93.261719 442.335938 C 92.410156 440.578125 91.96875 438.726562 91.578125 436.585938 Z M 91.578125 436.585938 " fill-opacity="0.1" fill-rule="evenodd"/></g></g><g clip-path="url(#7c3d60a47a)"><g clip-path="url(#52a66be08d)"><path fill="#6e925f" d="M 101.039062 429.269531 C 101.015625 428.976562 101.230469 428.722656 101.519531 428.699219 C 101.8125 428.675781 102.066406 428.890625 102.09375 429.183594 C 102.640625 431.011719 103.285156 432.675781 103.808594 434.496094 C 104.015625 435.210938 104.179688 435.921875 104.332031 436.652344 C 104.429688 437.132812 104.519531 437.617188 104.570312 438.109375 C 104.625 438.605469 104.644531 439.097656 104.652344 439.597656 C 104.65625 440.347656 104.621094 441.09375 104.566406 441.847656 C 104.511719 442.613281 104.4375 443.34375 104.332031 444.109375 C 104.167969 445.257812 103.957031 446.328125 103.710938 447.476562 C 103.710938 447.753906 103.484375 447.984375 103.203125 447.984375 C 102.921875 447.984375 102.691406 447.761719 102.691406 447.476562 C 102.445312 446.359375 102.152344 445.347656 101.867188 444.253906 C 101.679688 443.523438 101.492188 442.84375 101.316406 442.125 C 101.140625 441.410156 100.960938 440.714844 100.8125 439.992188 C 100.71875 439.519531 100.632812 439.042969 100.574219 438.558594 C 100.519531 438.078125 100.496094 437.59375 100.480469 437.109375 C 100.453125 436.367188 100.449219 435.636719 100.480469 434.894531 C 100.566406 432.976562 100.804688 431.1875 101.039062 429.269531 Z M 101.039062 429.269531 " fill-opacity="0.1" fill-rule="evenodd"/></g></g><g clip-path="url(#78261fe913)"><g clip-path="url(#17de63b67f)"><path fill="#6e925f" d="M 284.007812 476.636719 C 283.902344 476.359375 284.039062 476.058594 284.3125 475.953125 C 284.585938 475.84375 284.890625 475.984375 284.996094 476.253906 C 285.886719 477.917969 286.894531 479.84375 288.183594 481.511719 C 288.917969 482.457031 289.765625 483.246094 290.796875 483.753906 C 292.074219 484.476562 293.230469 484.5625 294.289062 484.355469 C 295.503906 484.125 296.609375 483.484375 297.574219 482.535156 C 298.632812 481.488281 299.585938 480.253906 300.304688 478.867188 C 301.09375 477.355469 301.6875 475.804688 301.902344 474.339844 C 301.910156 474.054688 302.140625 473.832031 302.421875 473.832031 C 302.699219 473.839844 302.925781 474.070312 302.921875 474.355469 C 303.179688 476.699219 302.765625 479.496094 301.734375 481.996094 C 300.992188 483.800781 299.878906 485.378906 298.546875 486.542969 C 297.460938 487.492188 296.179688 488.132812 294.804688 488.347656 C 292.984375 488.640625 290.964844 488.207031 288.90625 486.773438 C 287.609375 485.765625 286.566406 484.46875 285.859375 482.914062 C 284.925781 480.871094 284.464844 478.582031 284.007812 476.636719 Z M 284.007812 476.636719 " fill-opacity="0.1" fill-rule="evenodd"/></g></g><g clip-path="url(#ae11e4bbc0)"><g clip-path="url(#b002986b99)"><path fill="#6e925f" d="M 292.023438 467.828125 C 292 467.535156 292.214844 467.28125 292.503906 467.25 C 292.796875 467.226562 293.054688 467.441406 293.078125 467.734375 C 293.644531 469.730469 294.222656 471.605469 294.652344 473.632812 C 294.820312 474.425781 294.945312 475.21875 295.050781 476.019531 C 295.121094 476.546875 295.183594 477.078125 295.207031 477.609375 C 295.234375 478.140625 295.226562 478.671875 295.207031 479.210938 C 295.175781 480.015625 295.105469 480.800781 295.03125 481.609375 C 294.957031 482.417969 294.863281 483.191406 294.761719 484.007812 C 294.605469 485.234375 294.417969 486.382812 294.253906 487.621094 C 294.273438 487.894531 294.0625 488.140625 293.78125 488.15625 C 293.5 488.171875 293.257812 487.96875 293.238281 487.683594 C 292.910156 486.480469 292.589844 485.355469 292.296875 484.144531 C 292.101562 483.34375 291.929688 482.574219 291.773438 481.773438 C 291.613281 480.976562 291.464844 480.199219 291.355469 479.398438 C 291.28125 478.875 291.21875 478.347656 291.191406 477.816406 C 291.160156 477.285156 291.167969 476.753906 291.179688 476.222656 C 291.199219 475.421875 291.238281 474.640625 291.308594 473.839844 C 291.492188 471.789062 291.816406 469.871094 292.023438 467.828125 Z M 292.023438 467.828125 " fill-opacity="0.1" fill-rule="evenodd"/></g></g><g clip-path="url(#fb6d54e9b2)"><g clip-path="url(#e5667f33de)"><path fill="#6e925f" d="M 399.332031 543.179688 C 399.269531 542.894531 399.449219 542.609375 399.734375 542.546875 C 400.019531 542.484375 400.304688 542.664062 400.367188 542.949219 C 400.964844 544.535156 401.734375 546.347656 402.777344 547.941406 C 403.363281 548.828125 404.066406 549.570312 404.945312 550.078125 C 405.933594 550.734375 406.921875 550.816406 407.871094 550.710938 C 408.984375 550.578125 410.078125 550.171875 411.113281 549.507812 C 412.253906 548.773438 413.339844 547.890625 414.265625 546.878906 C 415.328125 545.714844 416.21875 544.535156 416.761719 543.386719 C 416.84375 543.117188 417.128906 542.964844 417.394531 543.054688 C 417.664062 543.132812 417.8125 543.417969 417.730469 543.6875 C 417.421875 545.652344 416.492188 547.988281 415.066406 550.054688 C 414.105469 551.449219 412.890625 552.628906 411.5625 553.492188 C 410.496094 554.171875 409.320312 554.609375 408.128906 554.726562 C 406.355469 554.886719 404.523438 554.363281 402.820312 552.96875 C 401.699219 551.929688 400.824219 550.648438 400.3125 549.136719 C 399.648438 547.171875 399.464844 545.019531 399.332031 543.179688 Z M 399.332031 543.179688 " fill-opacity="0.1" fill-rule="evenodd"/></g></g><g clip-path="url(#1451f5f261)"><g clip-path="url(#6850328818)"><path fill="#6e925f" d="M 179.175781 520.792969 C 179.113281 520.507812 179.292969 520.222656 179.578125 520.160156 C 179.863281 520.097656 180.148438 520.277344 180.210938 520.5625 C 180.808594 522.148438 181.578125 523.960938 182.621094 525.550781 C 183.207031 526.4375 183.910156 527.183594 184.789062 527.691406 C 185.777344 528.347656 186.761719 528.425781 187.714844 528.324219 C 188.824219 528.1875 189.921875 527.785156 190.957031 527.121094 C 192.09375 526.382812 193.183594 525.503906 194.105469 524.492188 C 195.171875 523.328125 196.058594 522.148438 196.601562 521 C 196.683594 520.730469 196.96875 520.578125 197.238281 520.667969 C 197.507812 520.746094 197.65625 521.03125 197.574219 521.300781 C 197.265625 523.265625 196.335938 525.601562 194.910156 527.667969 C 193.949219 529.0625 192.734375 530.242188 191.402344 531.105469 C 190.335938 531.785156 189.164062 532.21875 187.96875 532.339844 C 186.199219 532.496094 184.367188 531.976562 182.664062 530.582031 C 181.542969 529.542969 180.667969 528.261719 180.15625 526.75 C 179.492188 524.785156 179.304688 522.628906 179.175781 520.792969 Z M 179.175781 520.792969 " fill-opacity="0.1" fill-rule="evenodd"/></g></g><g clip-path="url(#2907b870c2)"><g clip-path="url(#39329a665c)"><path fill="#6e925f" d="M 406.773438 536.867188 C 406.742188 536.574219 406.953125 536.316406 407.246094 536.28125 C 407.535156 536.257812 407.796875 536.464844 407.824219 536.757812 C 408.371094 538.261719 408.976562 539.648438 409.460938 541.242188 C 409.648438 541.84375 409.785156 542.453125 409.90625 543.078125 C 409.984375 543.488281 410.050781 543.910156 410.082031 544.328125 C 410.113281 544.75 410.109375 545.175781 410.085938 545.597656 C 410.050781 546.246094 409.976562 546.871094 409.875 547.511719 C 409.769531 548.175781 409.65625 548.789062 409.492188 549.429688 C 409.246094 550.417969 408.964844 551.289062 408.621094 552.222656 C 408.597656 552.507812 408.347656 552.714844 408.066406 552.683594 C 407.789062 552.660156 407.582031 552.414062 407.609375 552.128906 C 407.386719 550.585938 406.976562 549.175781 406.613281 547.605469 C 406.476562 547.003906 406.34375 546.433594 406.238281 545.824219 C 406.167969 545.429688 406.105469 545.035156 406.074219 544.636719 C 406.039062 544.234375 406.039062 543.828125 406.042969 543.425781 C 406.050781 542.800781 406.074219 542.199219 406.128906 541.582031 C 406.277344 539.925781 406.550781 538.453125 406.773438 536.867188 Z M 406.773438 536.867188 " fill-opacity="0.1" fill-rule="evenodd"/></g></g><g clip-path="url(#8c0d2b76c7)"><g clip-path="url(#d626fc0a7d)"><path fill="#6e925f" d="M 186.617188 514.480469 C 186.585938 514.1875 186.796875 513.925781 187.089844 513.894531 C 187.378906 513.871094 187.640625 514.078125 187.667969 514.371094 C 188.210938 515.875 188.820312 517.261719 189.304688 518.851562 C 189.488281 519.453125 189.628906 520.0625 189.75 520.691406 C 189.828125 521.101562 189.894531 521.519531 189.925781 521.941406 C 189.957031 522.359375 189.953125 522.789062 189.929688 523.207031 C 189.894531 523.859375 189.820312 524.484375 189.71875 525.125 C 189.613281 525.789062 189.5 526.398438 189.335938 527.042969 C 189.085938 528.03125 188.808594 528.902344 188.464844 529.835938 C 188.4375 530.121094 188.191406 530.328125 187.910156 530.296875 C 187.632812 530.273438 187.425781 530.027344 187.453125 529.742188 C 187.226562 528.199219 186.820312 526.789062 186.457031 525.21875 C 186.320312 524.617188 186.1875 524.046875 186.078125 523.4375 C 186.011719 523.042969 185.949219 522.644531 185.914062 522.25 C 185.882812 521.847656 185.882812 521.441406 185.886719 521.039062 C 185.894531 520.414062 185.917969 519.8125 185.972656 519.191406 C 186.121094 517.539062 186.394531 516.066406 186.617188 514.480469 Z M 186.617188 514.480469 " fill-opacity="0.1" fill-rule="evenodd"/></g></g><g clip-path="url(#6120dd86ff)"><g clip-path="url(#7490fdaa80)"><path fill="#6e925f" d="M 374.605469 564.761719 C 374.511719 564.484375 374.664062 564.183594 374.941406 564.085938 C 375.214844 563.992188 375.515625 564.144531 375.609375 564.417969 C 376.210938 565.558594 376.894531 566.644531 377.710938 567.660156 C 378.417969 568.539062 379.261719 569.25 380.308594 569.765625 C 381.4375 570.414062 382.535156 570.644531 383.546875 570.722656 C 384.074219 570.761719 384.578125 570.769531 385.066406 570.683594 C 385.589844 570.597656 386.101562 570.492188 386.578125 570.265625 C 387.625 569.773438 388.582031 569.0625 389.332031 568.046875 C 390.097656 567.007812 390.734375 565.835938 391.085938 564.445312 C 391.109375 564.167969 391.359375 563.960938 391.636719 563.984375 C 391.917969 564.007812 392.125 564.253906 392.097656 564.53125 C 392.234375 566.589844 391.824219 568.457031 391.046875 570.089844 C 390.421875 571.398438 389.488281 572.433594 388.410156 573.257812 C 387.378906 574.042969 386.152344 574.515625 384.839844 574.699219 C 384.296875 574.777344 383.730469 574.777344 383.160156 574.714844 C 382.632812 574.660156 382.089844 574.554688 381.554688 574.375 C 380.503906 574.019531 379.441406 573.449219 378.398438 572.617188 C 377.410156 571.753906 376.601562 570.804688 376.042969 569.664062 C 375.285156 568.117188 374.882812 566.445312 374.605469 564.761719 Z M 374.605469 564.761719 " fill-opacity="0.1" fill-rule="evenodd"/></g></g><g clip-path="url(#334a54949a)"><g clip-path="url(#5fef1052d4)"><path fill="#6e925f" d="M 382.320312 554.054688 C 382.25 553.769531 382.417969 553.484375 382.703125 553.402344 C 382.984375 553.332031 383.273438 553.507812 383.34375 553.785156 C 384.011719 555.179688 384.578125 556.515625 385.074219 557.972656 C 385.289062 558.589844 385.476562 559.199219 385.632812 559.835938 C 385.945312 561.085938 386.199219 562.34375 386.304688 563.636719 C 386.375 564.484375 386.316406 565.332031 386.300781 566.1875 C 386.074219 568.15625 386.070312 569.859375 385.449219 571.40625 C 385.003906 572.503906 384.386719 573.496094 383.230469 574.390625 C 383.046875 574.605469 382.726562 574.621094 382.511719 574.4375 C 382.300781 574.253906 382.28125 573.929688 382.464844 573.726562 C 383.035156 572.734375 383.164062 571.839844 383.195312 570.914062 C 383.21875 570.191406 383.074219 569.503906 382.945312 568.734375 C 382.820312 567.960938 382.683594 567.167969 382.542969 566.304688 C 382.480469 565.703125 382.382812 565.101562 382.335938 564.492188 C 382.292969 563.882812 382.28125 563.28125 382.28125 562.667969 C 382.277344 561.53125 382.308594 560.40625 382.324219 559.265625 C 382.351562 557.5 382.4375 555.820312 382.320312 554.054688 Z M 382.320312 554.054688 " fill-opacity="0.1" fill-rule="evenodd"/></g></g><g clip-path="url(#3377c8b516)"><g clip-path="url(#36ff67ffcb)"><path fill="#6e925f" d="M 557.394531 575.476562 C 557.339844 575.191406 557.527344 574.914062 557.8125 574.859375 C 558.097656 574.800781 558.375 574.984375 558.429688 575.269531 C 559.136719 577.152344 560.664062 578.050781 562.4375 578.523438 C 563.0625 578.691406 563.714844 578.738281 564.378906 578.785156 C 565.035156 578.832031 565.703125 578.785156 566.367188 578.746094 C 567.03125 578.707031 567.695312 578.644531 568.339844 578.53125 C 569.003906 578.414062 569.652344 578.324219 570.246094 578.105469 C 571.132812 577.8125 572.066406 577.203125 572.796875 576.355469 C 573.597656 575.425781 574.261719 574.414062 574.332031 573.335938 C 574.308594 573.058594 574.507812 572.804688 574.792969 572.78125 C 575.070312 572.75 575.316406 572.957031 575.347656 573.234375 C 575.71875 574.589844 575.425781 576.148438 574.792969 577.605469 C 574.128906 579.164062 572.9375 580.410156 571.757812 581.199219 C 570.992188 581.667969 570.144531 582.046875 569.226562 582.332031 C 568.648438 582.507812 568.046875 582.625 567.4375 582.691406 C 566.824219 582.753906 566.214844 582.761719 565.605469 582.714844 C 564.679688 582.632812 563.769531 582.46875 562.914062 582.167969 C 562.003906 581.851562 561.148438 581.46875 560.410156 580.914062 C 558.683594 579.617188 557.457031 577.882812 557.394531 575.476562 Z M 557.394531 575.476562 " fill-opacity="0.1" fill-rule="evenodd"/></g></g><g clip-path="url(#54263a36e9)"><g clip-path="url(#5ddc98a355)"><path fill="#6e925f" d="M 564.417969 568.269531 C 564.386719 567.976562 564.59375 567.714844 564.878906 567.675781 C 565.171875 567.644531 565.433594 567.847656 565.472656 568.140625 C 565.835938 568.933594 566.144531 569.574219 566.453125 570.328125 C 566.675781 570.859375 566.839844 571.324219 567 571.847656 C 567.160156 572.378906 567.269531 572.886719 567.347656 573.425781 C 567.402344 573.78125 567.4375 574.144531 567.425781 574.507812 C 567.425781 574.875 567.386719 575.238281 567.316406 575.601562 C 567.207031 576.15625 567.070312 576.679688 566.867188 577.210938 C 566.675781 577.746094 566.484375 578.230469 566.199219 578.753906 C 565.8125 579.488281 565.417969 580.117188 564.878906 580.84375 C 564.789062 581.113281 564.496094 581.257812 564.234375 581.160156 C 563.96875 581.074219 563.824219 580.789062 563.910156 580.519531 C 563.941406 579.363281 563.808594 578.429688 563.699219 577.382812 C 563.65625 576.980469 563.585938 576.609375 563.554688 576.203125 C 563.507812 575.617188 563.421875 575.054688 563.40625 574.46875 C 563.40625 574.152344 563.445312 573.84375 563.476562 573.535156 C 563.515625 573.042969 563.578125 572.585938 563.65625 572.085938 C 563.863281 570.8125 564.164062 569.679688 564.417969 568.269531 Z M 564.417969 568.269531 " fill-opacity="0.1" fill-rule="evenodd"/></g></g></svg>